<mxfile host="app.diagrams.net" modified="2024-03-19T15:26:04.272Z" agent="Mozilla/5.0 (Windows NT 10.0; Win64; x64) AppleWebKit/537.36 (KHTML, like Gecko) Chrome/109.0.0.0 Safari/537.36" etag="WhxOJQt0W34HdN7cm7sH" version="24.0.7" type="device">
  <diagram id="R2lEEEUBdFMjLlhIrx00" name="Page-1">
    <mxGraphModel dx="3749" dy="2237" grid="1" gridSize="10" guides="1" tooltips="1" connect="1" arrows="1" fold="1" page="1" pageScale="1" pageWidth="850" pageHeight="1100" math="0" shadow="0" extFonts="Permanent Marker^https://fonts.googleapis.com/css?family=Permanent+Marker">
      <root>
        <mxCell id="0" />
        <mxCell id="1" parent="0" />
        <mxCell id="C-vyLk0tnHw3VtMMgP7b-2" value="Vehicule" style="shape=table;startSize=30;container=1;collapsible=1;childLayout=tableLayout;fixedRows=1;rowLines=0;fontStyle=1;align=center;resizeLast=1;fillColor=#f8cecc;strokeColor=#b85450;" parent="1" vertex="1">
          <mxGeometry x="600" y="740" width="300" height="120" as="geometry">
            <mxRectangle x="600" y="740" width="90" height="30" as="alternateBounds" />
          </mxGeometry>
        </mxCell>
        <mxCell id="C-vyLk0tnHw3VtMMgP7b-3" value="" style="shape=partialRectangle;collapsible=0;dropTarget=0;pointerEvents=0;fillColor=none;points=[[0,0.5],[1,0.5]];portConstraint=eastwest;top=0;left=0;right=0;bottom=1;" parent="C-vyLk0tnHw3VtMMgP7b-2" vertex="1">
          <mxGeometry y="30" width="300" height="30" as="geometry" />
        </mxCell>
        <mxCell id="C-vyLk0tnHw3VtMMgP7b-4" value="PK" style="shape=partialRectangle;overflow=hidden;connectable=0;fillColor=none;top=0;left=0;bottom=0;right=0;fontStyle=1;" parent="C-vyLk0tnHw3VtMMgP7b-3" vertex="1">
          <mxGeometry width="30" height="30" as="geometry">
            <mxRectangle width="30" height="30" as="alternateBounds" />
          </mxGeometry>
        </mxCell>
        <mxCell id="C-vyLk0tnHw3VtMMgP7b-5" value="immatriculation                     CHAR(6)" style="shape=partialRectangle;overflow=hidden;connectable=0;fillColor=none;top=0;left=0;bottom=0;right=0;align=left;spacingLeft=6;fontStyle=5;" parent="C-vyLk0tnHw3VtMMgP7b-3" vertex="1">
          <mxGeometry x="30" width="270" height="30" as="geometry">
            <mxRectangle width="270" height="30" as="alternateBounds" />
          </mxGeometry>
        </mxCell>
        <mxCell id="C-vyLk0tnHw3VtMMgP7b-6" value="" style="shape=partialRectangle;collapsible=0;dropTarget=0;pointerEvents=0;fillColor=none;points=[[0,0.5],[1,0.5]];portConstraint=eastwest;top=0;left=0;right=0;bottom=0;" parent="C-vyLk0tnHw3VtMMgP7b-2" vertex="1">
          <mxGeometry y="60" width="300" height="30" as="geometry" />
        </mxCell>
        <mxCell id="C-vyLk0tnHw3VtMMgP7b-7" value="NN" style="shape=partialRectangle;overflow=hidden;connectable=0;fillColor=none;top=0;left=0;bottom=0;right=0;" parent="C-vyLk0tnHw3VtMMgP7b-6" vertex="1">
          <mxGeometry width="30" height="30" as="geometry">
            <mxRectangle width="30" height="30" as="alternateBounds" />
          </mxGeometry>
        </mxCell>
        <mxCell id="C-vyLk0tnHw3VtMMgP7b-8" value="marque                                VARCHAR(32)" style="shape=partialRectangle;overflow=hidden;connectable=0;fillColor=none;top=0;left=0;bottom=0;right=0;align=left;spacingLeft=6;" parent="C-vyLk0tnHw3VtMMgP7b-6" vertex="1">
          <mxGeometry x="30" width="270" height="30" as="geometry">
            <mxRectangle width="270" height="30" as="alternateBounds" />
          </mxGeometry>
        </mxCell>
        <mxCell id="C-vyLk0tnHw3VtMMgP7b-9" value="" style="shape=partialRectangle;collapsible=0;dropTarget=0;pointerEvents=0;fillColor=none;points=[[0,0.5],[1,0.5]];portConstraint=eastwest;top=0;left=0;right=0;bottom=0;" parent="C-vyLk0tnHw3VtMMgP7b-2" vertex="1">
          <mxGeometry y="90" width="300" height="30" as="geometry" />
        </mxCell>
        <mxCell id="C-vyLk0tnHw3VtMMgP7b-10" value="NN" style="shape=partialRectangle;overflow=hidden;connectable=0;fillColor=none;top=0;left=0;bottom=0;right=0;" parent="C-vyLk0tnHw3VtMMgP7b-9" vertex="1">
          <mxGeometry width="30" height="30" as="geometry">
            <mxRectangle width="30" height="30" as="alternateBounds" />
          </mxGeometry>
        </mxCell>
        <mxCell id="C-vyLk0tnHw3VtMMgP7b-11" value="modele                                VARCHAR(32)" style="shape=partialRectangle;overflow=hidden;connectable=0;fillColor=none;top=0;left=0;bottom=0;right=0;align=left;spacingLeft=6;" parent="C-vyLk0tnHw3VtMMgP7b-9" vertex="1">
          <mxGeometry x="30" width="270" height="30" as="geometry">
            <mxRectangle width="270" height="30" as="alternateBounds" />
          </mxGeometry>
        </mxCell>
        <mxCell id="C-vyLk0tnHw3VtMMgP7b-13" value="Reseau_routier" style="shape=table;startSize=30;container=1;collapsible=1;childLayout=tableLayout;fixedRows=1;rowLines=0;fontStyle=1;align=center;resizeLast=1;fillColor=#f8cecc;strokeColor=#b85450;" parent="1" vertex="1">
          <mxGeometry x="-120" y="400" width="250" height="120" as="geometry">
            <mxRectangle x="-120" y="400" width="120" height="30" as="alternateBounds" />
          </mxGeometry>
        </mxCell>
        <mxCell id="C-vyLk0tnHw3VtMMgP7b-14" value="" style="shape=partialRectangle;collapsible=0;dropTarget=0;pointerEvents=0;fillColor=none;points=[[0,0.5],[1,0.5]];portConstraint=eastwest;top=0;left=0;right=0;bottom=1;" parent="C-vyLk0tnHw3VtMMgP7b-13" vertex="1">
          <mxGeometry y="30" width="250" height="50" as="geometry" />
        </mxCell>
        <mxCell id="C-vyLk0tnHw3VtMMgP7b-15" value="PK" style="shape=partialRectangle;overflow=hidden;connectable=0;fillColor=none;top=0;left=0;bottom=0;right=0;fontStyle=1;" parent="C-vyLk0tnHw3VtMMgP7b-14" vertex="1">
          <mxGeometry width="30" height="50" as="geometry">
            <mxRectangle width="30" height="50" as="alternateBounds" />
          </mxGeometry>
        </mxCell>
        <mxCell id="C-vyLk0tnHw3VtMMgP7b-16" value="id                                        SERIAL " style="shape=partialRectangle;overflow=hidden;connectable=0;fillColor=none;top=0;left=0;bottom=0;right=0;align=left;spacingLeft=6;fontStyle=5;" parent="C-vyLk0tnHw3VtMMgP7b-14" vertex="1">
          <mxGeometry x="30" width="220" height="50" as="geometry">
            <mxRectangle width="220" height="50" as="alternateBounds" />
          </mxGeometry>
        </mxCell>
        <mxCell id="C-vyLk0tnHw3VtMMgP7b-17" value="" style="shape=partialRectangle;collapsible=0;dropTarget=0;pointerEvents=0;fillColor=none;points=[[0,0.5],[1,0.5]];portConstraint=eastwest;top=0;left=0;right=0;bottom=0;" parent="C-vyLk0tnHw3VtMMgP7b-13" vertex="1">
          <mxGeometry y="80" width="250" height="30" as="geometry" />
        </mxCell>
        <mxCell id="C-vyLk0tnHw3VtMMgP7b-18" value="NN" style="shape=partialRectangle;overflow=hidden;connectable=0;fillColor=none;top=0;left=0;bottom=0;right=0;" parent="C-vyLk0tnHw3VtMMgP7b-17" vertex="1">
          <mxGeometry width="30" height="30" as="geometry">
            <mxRectangle width="30" height="30" as="alternateBounds" />
          </mxGeometry>
        </mxCell>
        <mxCell id="C-vyLk0tnHw3VtMMgP7b-19" value="nom                            VARCHAR(32)" style="shape=partialRectangle;overflow=hidden;connectable=0;fillColor=none;top=0;left=0;bottom=0;right=0;align=left;spacingLeft=6;" parent="C-vyLk0tnHw3VtMMgP7b-17" vertex="1">
          <mxGeometry x="30" width="220" height="30" as="geometry">
            <mxRectangle width="220" height="30" as="alternateBounds" />
          </mxGeometry>
        </mxCell>
        <mxCell id="C-vyLk0tnHw3VtMMgP7b-23" value="Profileur_laser" style="shape=table;startSize=30;container=1;collapsible=1;childLayout=tableLayout;fixedRows=1;rowLines=0;fontStyle=1;align=center;resizeLast=1;fillColor=#f8cecc;strokeColor=#b85450;" parent="1" vertex="1">
          <mxGeometry x="520" y="1430" width="250" height="120" as="geometry" />
        </mxCell>
        <mxCell id="C-vyLk0tnHw3VtMMgP7b-24" value="" style="shape=partialRectangle;collapsible=0;dropTarget=0;pointerEvents=0;fillColor=none;points=[[0,0.5],[1,0.5]];portConstraint=eastwest;top=0;left=0;right=0;bottom=1;" parent="C-vyLk0tnHw3VtMMgP7b-23" vertex="1">
          <mxGeometry y="30" width="250" height="30" as="geometry" />
        </mxCell>
        <mxCell id="C-vyLk0tnHw3VtMMgP7b-25" value="PK" style="shape=partialRectangle;overflow=hidden;connectable=0;fillColor=none;top=0;left=0;bottom=0;right=0;fontStyle=1;" parent="C-vyLk0tnHw3VtMMgP7b-24" vertex="1">
          <mxGeometry width="30" height="30" as="geometry">
            <mxRectangle width="30" height="30" as="alternateBounds" />
          </mxGeometry>
        </mxCell>
        <mxCell id="C-vyLk0tnHw3VtMMgP7b-26" value="num_serie        CHAR(16)" style="shape=partialRectangle;overflow=hidden;connectable=0;fillColor=none;top=0;left=0;bottom=0;right=0;align=left;spacingLeft=6;fontStyle=5;" parent="C-vyLk0tnHw3VtMMgP7b-24" vertex="1">
          <mxGeometry x="30" width="220" height="30" as="geometry">
            <mxRectangle width="220" height="30" as="alternateBounds" />
          </mxGeometry>
        </mxCell>
        <mxCell id="C-vyLk0tnHw3VtMMgP7b-27" value="" style="shape=partialRectangle;collapsible=0;dropTarget=0;pointerEvents=0;fillColor=none;points=[[0,0.5],[1,0.5]];portConstraint=eastwest;top=0;left=0;right=0;bottom=0;" parent="C-vyLk0tnHw3VtMMgP7b-23" vertex="1">
          <mxGeometry y="60" width="250" height="30" as="geometry" />
        </mxCell>
        <mxCell id="C-vyLk0tnHw3VtMMgP7b-28" value="NN" style="shape=partialRectangle;overflow=hidden;connectable=0;fillColor=none;top=0;left=0;bottom=0;right=0;" parent="C-vyLk0tnHw3VtMMgP7b-27" vertex="1">
          <mxGeometry width="30" height="30" as="geometry">
            <mxRectangle width="30" height="30" as="alternateBounds" />
          </mxGeometry>
        </mxCell>
        <mxCell id="C-vyLk0tnHw3VtMMgP7b-29" value="marque            VARCHAR(32), OBL" style="shape=partialRectangle;overflow=hidden;connectable=0;fillColor=none;top=0;left=0;bottom=0;right=0;align=left;spacingLeft=6;" parent="C-vyLk0tnHw3VtMMgP7b-27" vertex="1">
          <mxGeometry x="30" width="220" height="30" as="geometry">
            <mxRectangle width="220" height="30" as="alternateBounds" />
          </mxGeometry>
        </mxCell>
        <mxCell id="Cfk49-MD2ZqIIwPq4QvF-4" style="shape=partialRectangle;collapsible=0;dropTarget=0;pointerEvents=0;fillColor=none;points=[[0,0.5],[1,0.5]];portConstraint=eastwest;top=0;left=0;right=0;bottom=0;" parent="C-vyLk0tnHw3VtMMgP7b-23" vertex="1">
          <mxGeometry y="90" width="250" height="30" as="geometry" />
        </mxCell>
        <mxCell id="Cfk49-MD2ZqIIwPq4QvF-5" value="NN" style="shape=partialRectangle;overflow=hidden;connectable=0;fillColor=none;top=0;left=0;bottom=0;right=0;" parent="Cfk49-MD2ZqIIwPq4QvF-4" vertex="1">
          <mxGeometry width="30" height="30" as="geometry">
            <mxRectangle width="30" height="30" as="alternateBounds" />
          </mxGeometry>
        </mxCell>
        <mxCell id="Cfk49-MD2ZqIIwPq4QvF-6" value="modele            VARCHAR(32), OBL" style="shape=partialRectangle;overflow=hidden;connectable=0;fillColor=none;top=0;left=0;bottom=0;right=0;align=left;spacingLeft=6;" parent="Cfk49-MD2ZqIIwPq4QvF-4" vertex="1">
          <mxGeometry x="30" width="220" height="30" as="geometry">
            <mxRectangle width="220" height="30" as="alternateBounds" />
          </mxGeometry>
        </mxCell>
        <mxCell id="Cfk49-MD2ZqIIwPq4QvF-22" value="liste_reseau_troncon_intersection" style="shape=table;startSize=30;container=1;collapsible=1;childLayout=tableLayout;fixedRows=1;rowLines=0;fontStyle=1;align=center;resizeLast=1;fillColor=#ffe6cc;strokeColor=#d79b00;" parent="1" vertex="1">
          <mxGeometry x="175" y="260" width="250" height="150" as="geometry">
            <mxRectangle x="175" y="260" width="220" height="30" as="alternateBounds" />
          </mxGeometry>
        </mxCell>
        <mxCell id="Cfk49-MD2ZqIIwPq4QvF-23" value="" style="shape=partialRectangle;collapsible=0;dropTarget=0;pointerEvents=0;fillColor=none;points=[[0,0.5],[1,0.5]];portConstraint=eastwest;top=0;left=0;right=0;bottom=1;" parent="Cfk49-MD2ZqIIwPq4QvF-22" vertex="1">
          <mxGeometry y="30" width="250" height="30" as="geometry" />
        </mxCell>
        <mxCell id="Cfk49-MD2ZqIIwPq4QvF-24" value="PK" style="shape=partialRectangle;overflow=hidden;connectable=0;fillColor=none;top=0;left=0;bottom=0;right=0;fontStyle=1;" parent="Cfk49-MD2ZqIIwPq4QvF-23" vertex="1">
          <mxGeometry width="30" height="30" as="geometry">
            <mxRectangle width="30" height="30" as="alternateBounds" />
          </mxGeometry>
        </mxCell>
        <mxCell id="Cfk49-MD2ZqIIwPq4QvF-25" value="id                            SERIAL" style="shape=partialRectangle;overflow=hidden;connectable=0;fillColor=none;top=0;left=0;bottom=0;right=0;align=left;spacingLeft=6;fontStyle=5;" parent="Cfk49-MD2ZqIIwPq4QvF-23" vertex="1">
          <mxGeometry x="30" width="220" height="30" as="geometry">
            <mxRectangle width="220" height="30" as="alternateBounds" />
          </mxGeometry>
        </mxCell>
        <mxCell id="Cfk49-MD2ZqIIwPq4QvF-26" value="" style="shape=partialRectangle;collapsible=0;dropTarget=0;pointerEvents=0;fillColor=none;points=[[0,0.5],[1,0.5]];portConstraint=eastwest;top=0;left=0;right=0;bottom=0;" parent="Cfk49-MD2ZqIIwPq4QvF-22" vertex="1">
          <mxGeometry y="60" width="250" height="30" as="geometry" />
        </mxCell>
        <mxCell id="Cfk49-MD2ZqIIwPq4QvF-27" value="FK" style="shape=partialRectangle;overflow=hidden;connectable=0;fillColor=none;top=0;left=0;bottom=0;right=0;" parent="Cfk49-MD2ZqIIwPq4QvF-26" vertex="1">
          <mxGeometry width="30" height="30" as="geometry">
            <mxRectangle width="30" height="30" as="alternateBounds" />
          </mxGeometry>
        </mxCell>
        <mxCell id="Cfk49-MD2ZqIIwPq4QvF-28" value="reseau_id" style="shape=partialRectangle;overflow=hidden;connectable=0;fillColor=none;top=0;left=0;bottom=0;right=0;align=left;spacingLeft=6;" parent="Cfk49-MD2ZqIIwPq4QvF-26" vertex="1">
          <mxGeometry x="30" width="220" height="30" as="geometry">
            <mxRectangle width="220" height="30" as="alternateBounds" />
          </mxGeometry>
        </mxCell>
        <mxCell id="Cfk49-MD2ZqIIwPq4QvF-29" value="" style="shape=partialRectangle;collapsible=0;dropTarget=0;pointerEvents=0;fillColor=none;points=[[0,0.5],[1,0.5]];portConstraint=eastwest;top=0;left=0;right=0;bottom=0;" parent="Cfk49-MD2ZqIIwPq4QvF-22" vertex="1">
          <mxGeometry y="90" width="250" height="30" as="geometry" />
        </mxCell>
        <mxCell id="Cfk49-MD2ZqIIwPq4QvF-30" value="FK" style="shape=partialRectangle;overflow=hidden;connectable=0;fillColor=none;top=0;left=0;bottom=0;right=0;" parent="Cfk49-MD2ZqIIwPq4QvF-29" vertex="1">
          <mxGeometry width="30" height="30" as="geometry">
            <mxRectangle width="30" height="30" as="alternateBounds" />
          </mxGeometry>
        </mxCell>
        <mxCell id="Cfk49-MD2ZqIIwPq4QvF-31" value="troncon_id" style="shape=partialRectangle;overflow=hidden;connectable=0;fillColor=none;top=0;left=0;bottom=0;right=0;align=left;spacingLeft=6;" parent="Cfk49-MD2ZqIIwPq4QvF-29" vertex="1">
          <mxGeometry x="30" width="220" height="30" as="geometry">
            <mxRectangle width="220" height="30" as="alternateBounds" />
          </mxGeometry>
        </mxCell>
        <mxCell id="HNpGyz6ydOrOyHHForkR-76" style="shape=partialRectangle;collapsible=0;dropTarget=0;pointerEvents=0;fillColor=none;points=[[0,0.5],[1,0.5]];portConstraint=eastwest;top=0;left=0;right=0;bottom=0;" parent="Cfk49-MD2ZqIIwPq4QvF-22" vertex="1">
          <mxGeometry y="120" width="250" height="30" as="geometry" />
        </mxCell>
        <mxCell id="HNpGyz6ydOrOyHHForkR-77" value="FK" style="shape=partialRectangle;overflow=hidden;connectable=0;fillColor=none;top=0;left=0;bottom=0;right=0;" parent="HNpGyz6ydOrOyHHForkR-76" vertex="1">
          <mxGeometry width="30" height="30" as="geometry">
            <mxRectangle width="30" height="30" as="alternateBounds" />
          </mxGeometry>
        </mxCell>
        <mxCell id="HNpGyz6ydOrOyHHForkR-78" value="intersection_id" style="shape=partialRectangle;overflow=hidden;connectable=0;fillColor=none;top=0;left=0;bottom=0;right=0;align=left;spacingLeft=6;" parent="HNpGyz6ydOrOyHHForkR-76" vertex="1">
          <mxGeometry x="30" width="220" height="30" as="geometry">
            <mxRectangle width="220" height="30" as="alternateBounds" />
          </mxGeometry>
        </mxCell>
        <mxCell id="Cfk49-MD2ZqIIwPq4QvF-53" style="edgeStyle=orthogonalEdgeStyle;rounded=0;orthogonalLoop=1;jettySize=auto;html=1;exitX=1;exitY=0.5;exitDx=0;exitDy=0;entryX=0;entryY=0.5;entryDx=0;entryDy=0;" parent="1" source="Cfk49-MD2ZqIIwPq4QvF-29" target="HNpGyz6ydOrOyHHForkR-45" edge="1">
          <mxGeometry relative="1" as="geometry">
            <mxPoint x="599.46" y="289.1399999999999" as="targetPoint" />
          </mxGeometry>
        </mxCell>
        <mxCell id="Cfk49-MD2ZqIIwPq4QvF-55" style="edgeStyle=orthogonalEdgeStyle;rounded=0;orthogonalLoop=1;jettySize=auto;html=1;exitX=1;exitY=0.5;exitDx=0;exitDy=0;entryX=0;entryY=0.5;entryDx=0;entryDy=0;" parent="1" source="HNpGyz6ydOrOyHHForkR-76" target="HNpGyz6ydOrOyHHForkR-64" edge="1">
          <mxGeometry relative="1" as="geometry">
            <mxPoint x="500" y="615" as="sourcePoint" />
            <mxPoint x="600" y="575" as="targetPoint" />
            <Array as="points">
              <mxPoint x="425" y="400" />
              <mxPoint x="530" y="400" />
              <mxPoint x="530" y="445" />
            </Array>
          </mxGeometry>
        </mxCell>
        <mxCell id="Cfk49-MD2ZqIIwPq4QvF-66" value="Inspection_vehicule" style="shape=table;startSize=30;container=1;collapsible=1;childLayout=tableLayout;fixedRows=1;rowLines=0;fontStyle=1;align=center;resizeLast=1;fillColor=#f8cecc;strokeColor=#b85450;" parent="1" vertex="1">
          <mxGeometry x="210" y="770" width="260" height="180" as="geometry">
            <mxRectangle x="210" y="770" width="150" height="30" as="alternateBounds" />
          </mxGeometry>
        </mxCell>
        <mxCell id="Cfk49-MD2ZqIIwPq4QvF-67" value="" style="shape=partialRectangle;collapsible=0;dropTarget=0;pointerEvents=0;fillColor=none;points=[[0,0.5],[1,0.5]];portConstraint=eastwest;top=0;left=0;right=0;bottom=1;" parent="Cfk49-MD2ZqIIwPq4QvF-66" vertex="1">
          <mxGeometry y="30" width="260" height="30" as="geometry" />
        </mxCell>
        <mxCell id="Cfk49-MD2ZqIIwPq4QvF-68" value="PK" style="shape=partialRectangle;overflow=hidden;connectable=0;fillColor=none;top=0;left=0;bottom=0;right=0;fontStyle=1;" parent="Cfk49-MD2ZqIIwPq4QvF-67" vertex="1">
          <mxGeometry width="30" height="30" as="geometry">
            <mxRectangle width="30" height="30" as="alternateBounds" />
          </mxGeometry>
        </mxCell>
        <mxCell id="Cfk49-MD2ZqIIwPq4QvF-69" value="id                                    SERIAL" style="shape=partialRectangle;overflow=hidden;connectable=0;fillColor=none;top=0;left=0;bottom=0;right=0;align=left;spacingLeft=6;fontStyle=5;" parent="Cfk49-MD2ZqIIwPq4QvF-67" vertex="1">
          <mxGeometry x="30" width="230" height="30" as="geometry">
            <mxRectangle width="230" height="30" as="alternateBounds" />
          </mxGeometry>
        </mxCell>
        <mxCell id="Cfk49-MD2ZqIIwPq4QvF-73" value="" style="shape=partialRectangle;collapsible=0;dropTarget=0;pointerEvents=0;fillColor=none;points=[[0,0.5],[1,0.5]];portConstraint=eastwest;top=0;left=0;right=0;bottom=0;" parent="Cfk49-MD2ZqIIwPq4QvF-66" vertex="1">
          <mxGeometry y="60" width="260" height="30" as="geometry" />
        </mxCell>
        <mxCell id="Cfk49-MD2ZqIIwPq4QvF-74" value="FK" style="shape=partialRectangle;overflow=hidden;connectable=0;fillColor=none;top=0;left=0;bottom=0;right=0;" parent="Cfk49-MD2ZqIIwPq4QvF-73" vertex="1">
          <mxGeometry width="30" height="30" as="geometry">
            <mxRectangle width="30" height="30" as="alternateBounds" />
          </mxGeometry>
        </mxCell>
        <mxCell id="Cfk49-MD2ZqIIwPq4QvF-75" value="vehicule_id" style="shape=partialRectangle;overflow=hidden;connectable=0;fillColor=none;top=0;left=0;bottom=0;right=0;align=left;spacingLeft=6;" parent="Cfk49-MD2ZqIIwPq4QvF-73" vertex="1">
          <mxGeometry x="30" width="230" height="30" as="geometry">
            <mxRectangle width="230" height="30" as="alternateBounds" />
          </mxGeometry>
        </mxCell>
        <mxCell id="Cfk49-MD2ZqIIwPq4QvF-100" style="shape=partialRectangle;collapsible=0;dropTarget=0;pointerEvents=0;fillColor=none;points=[[0,0.5],[1,0.5]];portConstraint=eastwest;top=0;left=0;right=0;bottom=0;" parent="Cfk49-MD2ZqIIwPq4QvF-66" vertex="1">
          <mxGeometry y="90" width="260" height="30" as="geometry" />
        </mxCell>
        <mxCell id="Cfk49-MD2ZqIIwPq4QvF-101" value="FK" style="shape=partialRectangle;overflow=hidden;connectable=0;fillColor=none;top=0;left=0;bottom=0;right=0;" parent="Cfk49-MD2ZqIIwPq4QvF-100" vertex="1">
          <mxGeometry width="30" height="30" as="geometry">
            <mxRectangle width="30" height="30" as="alternateBounds" />
          </mxGeometry>
        </mxCell>
        <mxCell id="Cfk49-MD2ZqIIwPq4QvF-102" value="employe_id" style="shape=partialRectangle;overflow=hidden;connectable=0;fillColor=none;top=0;left=0;bottom=0;right=0;align=left;spacingLeft=6;" parent="Cfk49-MD2ZqIIwPq4QvF-100" vertex="1">
          <mxGeometry x="30" width="230" height="30" as="geometry">
            <mxRectangle width="230" height="30" as="alternateBounds" />
          </mxGeometry>
        </mxCell>
        <mxCell id="HNpGyz6ydOrOyHHForkR-92" style="shape=partialRectangle;collapsible=0;dropTarget=0;pointerEvents=0;fillColor=none;points=[[0,0.5],[1,0.5]];portConstraint=eastwest;top=0;left=0;right=0;bottom=0;" parent="Cfk49-MD2ZqIIwPq4QvF-66" vertex="1">
          <mxGeometry y="120" width="260" height="30" as="geometry" />
        </mxCell>
        <mxCell id="HNpGyz6ydOrOyHHForkR-93" value="NN" style="shape=partialRectangle;overflow=hidden;connectable=0;fillColor=none;top=0;left=0;bottom=0;right=0;" parent="HNpGyz6ydOrOyHHForkR-92" vertex="1">
          <mxGeometry width="30" height="30" as="geometry">
            <mxRectangle width="30" height="30" as="alternateBounds" />
          </mxGeometry>
        </mxCell>
        <mxCell id="HNpGyz6ydOrOyHHForkR-94" value="kilometrage_debut            DECIMAL(8,2)" style="shape=partialRectangle;overflow=hidden;connectable=0;fillColor=none;top=0;left=0;bottom=0;right=0;align=left;spacingLeft=6;" parent="HNpGyz6ydOrOyHHForkR-92" vertex="1">
          <mxGeometry x="30" width="230" height="30" as="geometry">
            <mxRectangle width="230" height="30" as="alternateBounds" />
          </mxGeometry>
        </mxCell>
        <mxCell id="HNpGyz6ydOrOyHHForkR-95" style="shape=partialRectangle;collapsible=0;dropTarget=0;pointerEvents=0;fillColor=none;points=[[0,0.5],[1,0.5]];portConstraint=eastwest;top=0;left=0;right=0;bottom=0;" parent="Cfk49-MD2ZqIIwPq4QvF-66" vertex="1">
          <mxGeometry y="150" width="260" height="30" as="geometry" />
        </mxCell>
        <mxCell id="HNpGyz6ydOrOyHHForkR-96" value="NN" style="shape=partialRectangle;overflow=hidden;connectable=0;fillColor=none;top=0;left=0;bottom=0;right=0;" parent="HNpGyz6ydOrOyHHForkR-95" vertex="1">
          <mxGeometry width="30" height="30" as="geometry">
            <mxRectangle width="30" height="30" as="alternateBounds" />
          </mxGeometry>
        </mxCell>
        <mxCell id="HNpGyz6ydOrOyHHForkR-97" value="kilometrage_fin                DECIMAL(8,2)" style="shape=partialRectangle;overflow=hidden;connectable=0;fillColor=none;top=0;left=0;bottom=0;right=0;align=left;spacingLeft=6;" parent="HNpGyz6ydOrOyHHForkR-95" vertex="1">
          <mxGeometry x="30" width="230" height="30" as="geometry">
            <mxRectangle width="230" height="30" as="alternateBounds" />
          </mxGeometry>
        </mxCell>
        <mxCell id="Cfk49-MD2ZqIIwPq4QvF-87" style="edgeStyle=orthogonalEdgeStyle;rounded=0;orthogonalLoop=1;jettySize=auto;html=1;exitX=1;exitY=0.5;exitDx=0;exitDy=0;entryX=0;entryY=0.5;entryDx=0;entryDy=0;" parent="1" source="Cfk49-MD2ZqIIwPq4QvF-73" target="C-vyLk0tnHw3VtMMgP7b-3" edge="1">
          <mxGeometry relative="1" as="geometry" />
        </mxCell>
        <mxCell id="Cfk49-MD2ZqIIwPq4QvF-88" value="Inspection_laser" style="shape=table;startSize=30;container=1;collapsible=1;childLayout=tableLayout;fixedRows=1;rowLines=0;fontStyle=1;align=center;resizeLast=1;fillColor=#f8cecc;strokeColor=#b85450;" parent="1" vertex="1">
          <mxGeometry x="110" y="1280" width="250" height="120" as="geometry" />
        </mxCell>
        <mxCell id="Cfk49-MD2ZqIIwPq4QvF-89" value="" style="shape=partialRectangle;collapsible=0;dropTarget=0;pointerEvents=0;fillColor=none;points=[[0,0.5],[1,0.5]];portConstraint=eastwest;top=0;left=0;right=0;bottom=1;" parent="Cfk49-MD2ZqIIwPq4QvF-88" vertex="1">
          <mxGeometry y="30" width="250" height="30" as="geometry" />
        </mxCell>
        <mxCell id="Cfk49-MD2ZqIIwPq4QvF-90" value="PK" style="shape=partialRectangle;overflow=hidden;connectable=0;fillColor=none;top=0;left=0;bottom=0;right=0;fontStyle=1;" parent="Cfk49-MD2ZqIIwPq4QvF-89" vertex="1">
          <mxGeometry width="30" height="30" as="geometry">
            <mxRectangle width="30" height="30" as="alternateBounds" />
          </mxGeometry>
        </mxCell>
        <mxCell id="Cfk49-MD2ZqIIwPq4QvF-91" value="id                        SERIAL" style="shape=partialRectangle;overflow=hidden;connectable=0;fillColor=none;top=0;left=0;bottom=0;right=0;align=left;spacingLeft=6;fontStyle=5;" parent="Cfk49-MD2ZqIIwPq4QvF-89" vertex="1">
          <mxGeometry x="30" width="220" height="30" as="geometry">
            <mxRectangle width="220" height="30" as="alternateBounds" />
          </mxGeometry>
        </mxCell>
        <mxCell id="Cfk49-MD2ZqIIwPq4QvF-95" value="" style="shape=partialRectangle;collapsible=0;dropTarget=0;pointerEvents=0;fillColor=none;points=[[0,0.5],[1,0.5]];portConstraint=eastwest;top=0;left=0;right=0;bottom=0;" parent="Cfk49-MD2ZqIIwPq4QvF-88" vertex="1">
          <mxGeometry y="60" width="250" height="30" as="geometry" />
        </mxCell>
        <mxCell id="Cfk49-MD2ZqIIwPq4QvF-96" value="FK" style="shape=partialRectangle;overflow=hidden;connectable=0;fillColor=none;top=0;left=0;bottom=0;right=0;" parent="Cfk49-MD2ZqIIwPq4QvF-95" vertex="1">
          <mxGeometry width="30" height="30" as="geometry">
            <mxRectangle width="30" height="30" as="alternateBounds" />
          </mxGeometry>
        </mxCell>
        <mxCell id="Cfk49-MD2ZqIIwPq4QvF-97" value="employe_id" style="shape=partialRectangle;overflow=hidden;connectable=0;fillColor=none;top=0;left=0;bottom=0;right=0;align=left;spacingLeft=6;" parent="Cfk49-MD2ZqIIwPq4QvF-95" vertex="1">
          <mxGeometry x="30" width="220" height="30" as="geometry">
            <mxRectangle width="220" height="30" as="alternateBounds" />
          </mxGeometry>
        </mxCell>
        <mxCell id="Cfk49-MD2ZqIIwPq4QvF-104" style="shape=partialRectangle;collapsible=0;dropTarget=0;pointerEvents=0;fillColor=none;points=[[0,0.5],[1,0.5]];portConstraint=eastwest;top=0;left=0;right=0;bottom=0;" parent="Cfk49-MD2ZqIIwPq4QvF-88" vertex="1">
          <mxGeometry y="90" width="250" height="30" as="geometry" />
        </mxCell>
        <mxCell id="Cfk49-MD2ZqIIwPq4QvF-105" value="FK" style="shape=partialRectangle;overflow=hidden;connectable=0;fillColor=none;top=0;left=0;bottom=0;right=0;" parent="Cfk49-MD2ZqIIwPq4QvF-104" vertex="1">
          <mxGeometry width="30" height="30" as="geometry">
            <mxRectangle width="30" height="30" as="alternateBounds" />
          </mxGeometry>
        </mxCell>
        <mxCell id="Cfk49-MD2ZqIIwPq4QvF-106" value="profileur_laser_id" style="shape=partialRectangle;overflow=hidden;connectable=0;fillColor=none;top=0;left=0;bottom=0;right=0;align=left;spacingLeft=6;" parent="Cfk49-MD2ZqIIwPq4QvF-104" vertex="1">
          <mxGeometry x="30" width="220" height="30" as="geometry">
            <mxRectangle width="220" height="30" as="alternateBounds" />
          </mxGeometry>
        </mxCell>
        <mxCell id="Cfk49-MD2ZqIIwPq4QvF-103" style="rounded=0;orthogonalLoop=1;jettySize=auto;html=1;exitX=1;exitY=0.5;exitDx=0;exitDy=0;entryX=-0.007;entryY=0.189;entryDx=0;entryDy=0;entryPerimeter=0;" parent="1" source="Cfk49-MD2ZqIIwPq4QvF-100" edge="1">
          <mxGeometry relative="1" as="geometry">
            <mxPoint x="608.2499999999995" y="981.3399999999999" as="targetPoint" />
          </mxGeometry>
        </mxCell>
        <mxCell id="Cfk49-MD2ZqIIwPq4QvF-107" style="edgeStyle=orthogonalEdgeStyle;rounded=0;orthogonalLoop=1;jettySize=auto;html=1;exitX=1;exitY=0.5;exitDx=0;exitDy=0;entryX=0;entryY=0.5;entryDx=0;entryDy=0;" parent="1" source="Cfk49-MD2ZqIIwPq4QvF-95" target="HNpGyz6ydOrOyHHForkR-13" edge="1">
          <mxGeometry relative="1" as="geometry">
            <mxPoint x="606.75" y="1010.5" as="targetPoint" />
            <Array as="points">
              <mxPoint x="360" y="1295" />
              <mxPoint x="440" y="1295" />
              <mxPoint x="440" y="1025" />
            </Array>
          </mxGeometry>
        </mxCell>
        <mxCell id="Cfk49-MD2ZqIIwPq4QvF-108" style="edgeStyle=orthogonalEdgeStyle;rounded=0;orthogonalLoop=1;jettySize=auto;html=1;exitX=1;exitY=0.5;exitDx=0;exitDy=0;entryX=0;entryY=0.5;entryDx=0;entryDy=0;" parent="1" source="Cfk49-MD2ZqIIwPq4QvF-104" target="C-vyLk0tnHw3VtMMgP7b-24" edge="1">
          <mxGeometry relative="1" as="geometry" />
        </mxCell>
        <mxCell id="Cfk49-MD2ZqIIwPq4QvF-121" style="edgeStyle=orthogonalEdgeStyle;rounded=0;orthogonalLoop=1;jettySize=auto;html=1;exitX=0;exitY=0.5;exitDx=0;exitDy=0;entryX=1;entryY=0.361;entryDx=0;entryDy=0;entryPerimeter=0;" parent="1" source="Cfk49-MD2ZqIIwPq4QvF-26" target="C-vyLk0tnHw3VtMMgP7b-14" edge="1">
          <mxGeometry relative="1" as="geometry" />
        </mxCell>
        <mxCell id="Cfk49-MD2ZqIIwPq4QvF-144" value="liste_inspection_troncon" style="shape=table;startSize=30;container=1;collapsible=1;childLayout=tableLayout;fixedRows=1;rowLines=0;fontStyle=1;align=center;resizeLast=1;fillColor=#ffe6cc;strokeColor=#d79b00;" parent="1" vertex="1">
          <mxGeometry x="-500" y="620" width="250" height="150" as="geometry">
            <mxRectangle x="-500" y="620" width="170" height="30" as="alternateBounds" />
          </mxGeometry>
        </mxCell>
        <mxCell id="Cfk49-MD2ZqIIwPq4QvF-145" value="" style="shape=partialRectangle;collapsible=0;dropTarget=0;pointerEvents=0;fillColor=none;points=[[0,0.5],[1,0.5]];portConstraint=eastwest;top=0;left=0;right=0;bottom=1;" parent="Cfk49-MD2ZqIIwPq4QvF-144" vertex="1">
          <mxGeometry y="30" width="250" height="30" as="geometry" />
        </mxCell>
        <mxCell id="Cfk49-MD2ZqIIwPq4QvF-146" value="PK" style="shape=partialRectangle;overflow=hidden;connectable=0;fillColor=none;top=0;left=0;bottom=0;right=0;fontStyle=1;" parent="Cfk49-MD2ZqIIwPq4QvF-145" vertex="1">
          <mxGeometry width="30" height="30" as="geometry">
            <mxRectangle width="30" height="30" as="alternateBounds" />
          </mxGeometry>
        </mxCell>
        <mxCell id="Cfk49-MD2ZqIIwPq4QvF-147" value="id                                        SERIAL" style="shape=partialRectangle;overflow=hidden;connectable=0;fillColor=none;top=0;left=0;bottom=0;right=0;align=left;spacingLeft=6;fontStyle=5;" parent="Cfk49-MD2ZqIIwPq4QvF-145" vertex="1">
          <mxGeometry x="30" width="220" height="30" as="geometry">
            <mxRectangle width="220" height="30" as="alternateBounds" />
          </mxGeometry>
        </mxCell>
        <mxCell id="Cfk49-MD2ZqIIwPq4QvF-148" value="" style="shape=partialRectangle;collapsible=0;dropTarget=0;pointerEvents=0;fillColor=none;points=[[0,0.5],[1,0.5]];portConstraint=eastwest;top=0;left=0;right=0;bottom=0;" parent="Cfk49-MD2ZqIIwPq4QvF-144" vertex="1">
          <mxGeometry y="60" width="250" height="30" as="geometry" />
        </mxCell>
        <mxCell id="Cfk49-MD2ZqIIwPq4QvF-149" value="FK" style="shape=partialRectangle;overflow=hidden;connectable=0;fillColor=none;top=0;left=0;bottom=0;right=0;" parent="Cfk49-MD2ZqIIwPq4QvF-148" vertex="1">
          <mxGeometry width="30" height="30" as="geometry">
            <mxRectangle width="30" height="30" as="alternateBounds" />
          </mxGeometry>
        </mxCell>
        <mxCell id="Cfk49-MD2ZqIIwPq4QvF-150" value="inspection_id" style="shape=partialRectangle;overflow=hidden;connectable=0;fillColor=none;top=0;left=0;bottom=0;right=0;align=left;spacingLeft=6;" parent="Cfk49-MD2ZqIIwPq4QvF-148" vertex="1">
          <mxGeometry x="30" width="220" height="30" as="geometry">
            <mxRectangle width="220" height="30" as="alternateBounds" />
          </mxGeometry>
        </mxCell>
        <mxCell id="Cfk49-MD2ZqIIwPq4QvF-151" value="" style="shape=partialRectangle;collapsible=0;dropTarget=0;pointerEvents=0;fillColor=none;points=[[0,0.5],[1,0.5]];portConstraint=eastwest;top=0;left=0;right=0;bottom=0;" parent="Cfk49-MD2ZqIIwPq4QvF-144" vertex="1">
          <mxGeometry y="90" width="250" height="30" as="geometry" />
        </mxCell>
        <mxCell id="Cfk49-MD2ZqIIwPq4QvF-152" value="FK" style="shape=partialRectangle;overflow=hidden;connectable=0;fillColor=none;top=0;left=0;bottom=0;right=0;" parent="Cfk49-MD2ZqIIwPq4QvF-151" vertex="1">
          <mxGeometry width="30" height="30" as="geometry">
            <mxRectangle width="30" height="30" as="alternateBounds" />
          </mxGeometry>
        </mxCell>
        <mxCell id="Cfk49-MD2ZqIIwPq4QvF-153" value="troncon_id" style="shape=partialRectangle;overflow=hidden;connectable=0;fillColor=none;top=0;left=0;bottom=0;right=0;align=left;spacingLeft=6;" parent="Cfk49-MD2ZqIIwPq4QvF-151" vertex="1">
          <mxGeometry x="30" width="220" height="30" as="geometry">
            <mxRectangle width="220" height="30" as="alternateBounds" />
          </mxGeometry>
        </mxCell>
        <mxCell id="HNpGyz6ydOrOyHHForkR-1" style="shape=partialRectangle;collapsible=0;dropTarget=0;pointerEvents=0;fillColor=none;points=[[0,0.5],[1,0.5]];portConstraint=eastwest;top=0;left=0;right=0;bottom=0;" parent="Cfk49-MD2ZqIIwPq4QvF-144" vertex="1">
          <mxGeometry y="120" width="250" height="30" as="geometry" />
        </mxCell>
        <mxCell id="HNpGyz6ydOrOyHHForkR-2" style="shape=partialRectangle;overflow=hidden;connectable=0;fillColor=none;top=0;left=0;bottom=0;right=0;" parent="HNpGyz6ydOrOyHHForkR-1" vertex="1">
          <mxGeometry width="30" height="30" as="geometry">
            <mxRectangle width="30" height="30" as="alternateBounds" />
          </mxGeometry>
        </mxCell>
        <mxCell id="HNpGyz6ydOrOyHHForkR-3" value="voie                                INTEGER" style="shape=partialRectangle;overflow=hidden;connectable=0;fillColor=none;top=0;left=0;bottom=0;right=0;align=left;spacingLeft=6;" parent="HNpGyz6ydOrOyHHForkR-1" vertex="1">
          <mxGeometry x="30" width="220" height="30" as="geometry">
            <mxRectangle width="220" height="30" as="alternateBounds" />
          </mxGeometry>
        </mxCell>
        <mxCell id="Cfk49-MD2ZqIIwPq4QvF-154" style="edgeStyle=orthogonalEdgeStyle;rounded=0;orthogonalLoop=1;jettySize=auto;html=1;exitX=1;exitY=0.5;exitDx=0;exitDy=0;" parent="1" source="Cfk49-MD2ZqIIwPq4QvF-148" target="HNpGyz6ydOrOyHHForkR-130" edge="1">
          <mxGeometry relative="1" as="geometry">
            <mxPoint x="-174.25" y="821.3599999999997" as="targetPoint" />
          </mxGeometry>
        </mxCell>
        <mxCell id="Cfk49-MD2ZqIIwPq4QvF-158" style="edgeStyle=orthogonalEdgeStyle;rounded=0;orthogonalLoop=1;jettySize=auto;html=1;exitX=0;exitY=0.5;exitDx=0;exitDy=0;entryX=0;entryY=0.5;entryDx=0;entryDy=0;" parent="1" source="Cfk49-MD2ZqIIwPq4QvF-151" target="HNpGyz6ydOrOyHHForkR-45" edge="1">
          <mxGeometry relative="1" as="geometry">
            <Array as="points">
              <mxPoint x="-520" y="725" />
              <mxPoint x="-520" y="160" />
              <mxPoint x="240" y="160" />
              <mxPoint x="240" y="40" />
            </Array>
            <mxPoint x="600" y="248.69999999999982" as="targetPoint" />
          </mxGeometry>
        </mxCell>
        <mxCell id="Cfk49-MD2ZqIIwPq4QvF-161" value="Voie == une liste de troncon spécifque dans le reseau" style="shape=callout;whiteSpace=wrap;html=1;perimeter=calloutPerimeter;" parent="1" vertex="1">
          <mxGeometry x="-320" y="540" width="120" height="80" as="geometry" />
        </mxCell>
        <mxCell id="Cfk49-MD2ZqIIwPq4QvF-184" value="Departement" style="shape=table;startSize=30;container=1;collapsible=1;childLayout=tableLayout;fixedRows=1;rowLines=0;fontStyle=1;align=center;resizeLast=1;fillColor=#e1d5e7;strokeColor=#9673a6;" parent="1" vertex="1">
          <mxGeometry x="1120" y="1030" width="249.99999999999955" height="120" as="geometry">
            <mxRectangle x="1120" y="1030" width="110" height="30" as="alternateBounds" />
          </mxGeometry>
        </mxCell>
        <mxCell id="Cfk49-MD2ZqIIwPq4QvF-185" value="" style="shape=partialRectangle;collapsible=0;dropTarget=0;pointerEvents=0;fillColor=none;points=[[0,0.5],[1,0.5]];portConstraint=eastwest;top=0;left=0;right=0;bottom=1;" parent="Cfk49-MD2ZqIIwPq4QvF-184" vertex="1">
          <mxGeometry y="30" width="249.99999999999955" height="60" as="geometry" />
        </mxCell>
        <mxCell id="Cfk49-MD2ZqIIwPq4QvF-186" value="PK" style="shape=partialRectangle;overflow=hidden;connectable=0;fillColor=none;top=0;left=0;bottom=0;right=0;fontStyle=1;" parent="Cfk49-MD2ZqIIwPq4QvF-185" vertex="1">
          <mxGeometry width="30" height="60" as="geometry">
            <mxRectangle width="30" height="60" as="alternateBounds" />
          </mxGeometry>
        </mxCell>
        <mxCell id="Cfk49-MD2ZqIIwPq4QvF-187" value="departement_id" style="shape=partialRectangle;overflow=hidden;connectable=0;fillColor=none;top=0;left=0;bottom=0;right=0;align=left;spacingLeft=6;fontStyle=5;" parent="Cfk49-MD2ZqIIwPq4QvF-185" vertex="1">
          <mxGeometry x="30" width="219.99999999999955" height="60" as="geometry">
            <mxRectangle width="219.99999999999955" height="60" as="alternateBounds" />
          </mxGeometry>
        </mxCell>
        <mxCell id="Cfk49-MD2ZqIIwPq4QvF-188" value="" style="shape=partialRectangle;collapsible=0;dropTarget=0;pointerEvents=0;fillColor=none;points=[[0,0.5],[1,0.5]];portConstraint=eastwest;top=0;left=0;right=0;bottom=0;" parent="Cfk49-MD2ZqIIwPq4QvF-184" vertex="1">
          <mxGeometry y="90" width="249.99999999999955" height="30" as="geometry" />
        </mxCell>
        <mxCell id="Cfk49-MD2ZqIIwPq4QvF-189" value="" style="shape=partialRectangle;overflow=hidden;connectable=0;fillColor=none;top=0;left=0;bottom=0;right=0;" parent="Cfk49-MD2ZqIIwPq4QvF-188" vertex="1">
          <mxGeometry width="30" height="30" as="geometry">
            <mxRectangle width="30" height="30" as="alternateBounds" />
          </mxGeometry>
        </mxCell>
        <mxCell id="Cfk49-MD2ZqIIwPq4QvF-190" value="departement_nom         VARCHAR(64)" style="shape=partialRectangle;overflow=hidden;connectable=0;fillColor=none;top=0;left=0;bottom=0;right=0;align=left;spacingLeft=6;" parent="Cfk49-MD2ZqIIwPq4QvF-188" vertex="1">
          <mxGeometry x="30" width="219.99999999999955" height="30" as="geometry">
            <mxRectangle width="219.99999999999955" height="30" as="alternateBounds" />
          </mxGeometry>
        </mxCell>
        <mxCell id="Cfk49-MD2ZqIIwPq4QvF-208" style="edgeStyle=orthogonalEdgeStyle;rounded=0;orthogonalLoop=1;jettySize=auto;html=1;exitX=0.25;exitY=1;exitDx=0;exitDy=0;curved=1;" parent="1" source="Cfk49-MD2ZqIIwPq4QvF-200" edge="1">
          <mxGeometry relative="1" as="geometry">
            <mxPoint x="900" y="-10" as="targetPoint" />
          </mxGeometry>
        </mxCell>
        <mxCell id="Cfk49-MD2ZqIIwPq4QvF-200" value="Lien à un intersection de depart et de fin?" style="rounded=1;whiteSpace=wrap;html=1;" parent="1" vertex="1">
          <mxGeometry x="910" y="-200" width="120" height="60" as="geometry" />
        </mxCell>
        <mxCell id="Cfk49-MD2ZqIIwPq4QvF-210" style="edgeStyle=orthogonalEdgeStyle;rounded=0;orthogonalLoop=1;jettySize=auto;html=1;entryX=1;entryY=0.5;entryDx=0;entryDy=0;curved=1;" parent="1" source="Cfk49-MD2ZqIIwPq4QvF-202" edge="1">
          <mxGeometry relative="1" as="geometry">
            <mxPoint x="1340" y="230" as="targetPoint" />
          </mxGeometry>
        </mxCell>
        <mxCell id="Cfk49-MD2ZqIIwPq4QvF-202" value="tous les voies routières parcourues pour cette inspection (pour chaque tronçon inspecté,&lt;br/&gt;vous devez indiquer la voie inspectée où 1 est la voie la plus à droite)&amp;nbsp;" style="rounded=1;whiteSpace=wrap;html=1;" parent="1" vertex="1">
          <mxGeometry x="1040" y="250" width="210" height="130" as="geometry" />
        </mxCell>
        <mxCell id="Cfk49-MD2ZqIIwPq4QvF-207" style="edgeStyle=orthogonalEdgeStyle;rounded=0;orthogonalLoop=1;jettySize=auto;html=1;exitX=0.5;exitY=1;exitDx=0;exitDy=0;curved=1;" parent="1" source="Cfk49-MD2ZqIIwPq4QvF-206" edge="1">
          <mxGeometry relative="1" as="geometry">
            <mxPoint x="630" y="-10" as="targetPoint" />
          </mxGeometry>
        </mxCell>
        <mxCell id="Cfk49-MD2ZqIIwPq4QvF-206" value="Un tronçon est défini comme étant une section de rue à sens unique partant d’une première intersection vers une&lt;br&gt;seconde. Si la rue est à double sens, 2 tronçons doivent être créés (de l’intersection A à l’intersection B et de B à A)." style="rounded=1;whiteSpace=wrap;html=1;" parent="1" vertex="1">
          <mxGeometry x="590" y="-210" width="240" height="120" as="geometry" />
        </mxCell>
        <mxCell id="Cfk49-MD2ZqIIwPq4QvF-220" style="edgeStyle=orthogonalEdgeStyle;rounded=0;orthogonalLoop=1;jettySize=auto;html=1;entryX=0.25;entryY=0;entryDx=0;entryDy=0;curved=1;" parent="1" source="Cfk49-MD2ZqIIwPq4QvF-213" target="Cfk49-MD2ZqIIwPq4QvF-144" edge="1">
          <mxGeometry relative="1" as="geometry" />
        </mxCell>
        <mxCell id="Cfk49-MD2ZqIIwPq4QvF-213" value="tous les voies routières parcourues pour cette inspection (pour chaque tronçon inspecté,&lt;br&gt;vous devez indiquer la voie inspectée où 1 est la voie la plus à droite)" style="rounded=1;whiteSpace=wrap;html=1;" parent="1" vertex="1">
          <mxGeometry x="-870" y="640" width="220" height="130" as="geometry" />
        </mxCell>
        <mxCell id="Cfk49-MD2ZqIIwPq4QvF-219" style="edgeStyle=orthogonalEdgeStyle;rounded=0;orthogonalLoop=1;jettySize=auto;html=1;entryX=1;entryY=0.5;entryDx=0;entryDy=0;curved=1;" parent="1" source="Cfk49-MD2ZqIIwPq4QvF-214" target="C-vyLk0tnHw3VtMMgP7b-24" edge="1">
          <mxGeometry relative="1" as="geometry" />
        </mxCell>
        <mxCell id="Cfk49-MD2ZqIIwPq4QvF-214" value="Faire un trigger pour faire un id avec une combinaison de la marque, modele et num_serie?" style="rounded=1;whiteSpace=wrap;html=1;" parent="1" vertex="1">
          <mxGeometry x="850" y="1450" width="190" height="90" as="geometry" />
        </mxCell>
        <mxCell id="Cfk49-MD2ZqIIwPq4QvF-217" style="edgeStyle=orthogonalEdgeStyle;rounded=0;orthogonalLoop=1;jettySize=auto;html=1;curved=1;" parent="1" edge="1">
          <mxGeometry relative="1" as="geometry">
            <mxPoint x="1020" y="950" as="targetPoint" />
            <mxPoint x="1075" y="850" as="sourcePoint" />
          </mxGeometry>
        </mxCell>
        <mxCell id="Cfk49-MD2ZqIIwPq4QvF-224" value="Vue" style="swimlane;fontStyle=0;childLayout=stackLayout;horizontal=1;startSize=30;horizontalStack=0;resizeParent=1;resizeParentMax=0;resizeLast=0;collapsible=1;marginBottom=0;whiteSpace=wrap;html=1;" parent="1" vertex="1">
          <mxGeometry x="-500" y="940" width="140" height="60" as="geometry" />
        </mxCell>
        <mxCell id="Cfk49-MD2ZqIIwPq4QvF-228" value="Index" style="swimlane;fontStyle=0;childLayout=stackLayout;horizontal=1;startSize=30;horizontalStack=0;resizeParent=1;resizeParentMax=0;resizeLast=0;collapsible=1;marginBottom=0;whiteSpace=wrap;html=1;" parent="1" vertex="1">
          <mxGeometry x="-495" y="1040" width="140" height="60" as="geometry" />
        </mxCell>
        <mxCell id="Cfk49-MD2ZqIIwPq4QvF-229" value="Séquence" style="swimlane;fontStyle=0;childLayout=stackLayout;horizontal=1;startSize=30;horizontalStack=0;resizeParent=1;resizeParentMax=0;resizeLast=0;collapsible=1;marginBottom=0;whiteSpace=wrap;html=1;" parent="1" vertex="1">
          <mxGeometry x="-500" y="1130" width="140" height="60" as="geometry" />
        </mxCell>
        <mxCell id="Cfk49-MD2ZqIIwPq4QvF-235" style="edgeStyle=orthogonalEdgeStyle;rounded=0;orthogonalLoop=1;jettySize=auto;html=1;entryX=0;entryY=0.25;entryDx=0;entryDy=0;" parent="1" source="Cfk49-MD2ZqIIwPq4QvF-230" target="Cfk49-MD2ZqIIwPq4QvF-224" edge="1">
          <mxGeometry relative="1" as="geometry" />
        </mxCell>
        <mxCell id="Cfk49-MD2ZqIIwPq4QvF-230" value="Tableau souvent inventé lors de requete (ex: cout des employe par departement)" style="rounded=1;whiteSpace=wrap;html=1;" parent="1" vertex="1">
          <mxGeometry x="-740" y="890" width="180" height="120" as="geometry" />
        </mxCell>
        <mxCell id="Cfk49-MD2ZqIIwPq4QvF-234" style="edgeStyle=orthogonalEdgeStyle;rounded=0;orthogonalLoop=1;jettySize=auto;html=1;entryX=0;entryY=0.25;entryDx=0;entryDy=0;" parent="1" source="Cfk49-MD2ZqIIwPq4QvF-231" target="Cfk49-MD2ZqIIwPq4QvF-228" edge="1">
          <mxGeometry relative="1" as="geometry" />
        </mxCell>
        <mxCell id="Cfk49-MD2ZqIIwPq4QvF-231" value="Crée des short-cuts pour accéléré les requetes(ex: toujours placé les entrée null à la fin)" style="rounded=1;whiteSpace=wrap;html=1;" parent="1" vertex="1">
          <mxGeometry x="-730" y="1030" width="180" height="90" as="geometry" />
        </mxCell>
        <mxCell id="Cfk49-MD2ZqIIwPq4QvF-233" style="edgeStyle=orthogonalEdgeStyle;rounded=0;orthogonalLoop=1;jettySize=auto;html=1;entryX=0;entryY=0.25;entryDx=0;entryDy=0;" parent="1" source="Cfk49-MD2ZqIIwPq4QvF-232" target="Cfk49-MD2ZqIIwPq4QvF-229" edge="1">
          <mxGeometry relative="1" as="geometry" />
        </mxCell>
        <mxCell id="Cfk49-MD2ZqIIwPq4QvF-232" value="Serial personnalisé" style="rounded=1;whiteSpace=wrap;html=1;" parent="1" vertex="1">
          <mxGeometry x="-710" y="1140" width="120" height="60" as="geometry" />
        </mxCell>
        <mxCell id="Cfk49-MD2ZqIIwPq4QvF-236" value="Trigger" style="swimlane;fontStyle=0;childLayout=stackLayout;horizontal=1;startSize=30;horizontalStack=0;resizeParent=1;resizeParentMax=0;resizeLast=0;collapsible=1;marginBottom=0;whiteSpace=wrap;html=1;" parent="1" vertex="1">
          <mxGeometry x="-510" y="1235" width="140" height="60" as="geometry" />
        </mxCell>
        <mxCell id="Cfk49-MD2ZqIIwPq4QvF-238" style="edgeStyle=orthogonalEdgeStyle;rounded=0;orthogonalLoop=1;jettySize=auto;html=1;entryX=0;entryY=0.25;entryDx=0;entryDy=0;" parent="1" source="Cfk49-MD2ZqIIwPq4QvF-237" target="Cfk49-MD2ZqIIwPq4QvF-236" edge="1">
          <mxGeometry relative="1" as="geometry" />
        </mxCell>
        <mxCell id="Cfk49-MD2ZqIIwPq4QvF-237" value="Événemment avant ou après une modif à une table (ex: créé un id appartir de valeur de colonnes)" style="rounded=1;whiteSpace=wrap;html=1;" parent="1" vertex="1">
          <mxGeometry x="-720" y="1230" width="160" height="70" as="geometry" />
        </mxCell>
        <mxCell id="Cfk49-MD2ZqIIwPq4QvF-239" value="Fonctions" style="swimlane;fontStyle=0;childLayout=stackLayout;horizontal=1;startSize=30;horizontalStack=0;resizeParent=1;resizeParentMax=0;resizeLast=0;collapsible=1;marginBottom=0;whiteSpace=wrap;html=1;" parent="1" vertex="1">
          <mxGeometry x="-510" y="1330" width="140" height="60" as="geometry" />
        </mxCell>
        <mxCell id="Cfk49-MD2ZqIIwPq4QvF-241" style="edgeStyle=orthogonalEdgeStyle;rounded=0;orthogonalLoop=1;jettySize=auto;html=1;entryX=0;entryY=0.25;entryDx=0;entryDy=0;" parent="1" source="Cfk49-MD2ZqIIwPq4QvF-240" target="Cfk49-MD2ZqIIwPq4QvF-239" edge="1">
          <mxGeometry relative="1" as="geometry" />
        </mxCell>
        <mxCell id="Cfk49-MD2ZqIIwPq4QvF-240" value="Requete ou Insert répétés souvent et qui pourraient être préfaite" style="rounded=1;whiteSpace=wrap;html=1;" parent="1" vertex="1">
          <mxGeometry x="-720" y="1330" width="120" height="60" as="geometry" />
        </mxCell>
        <mxCell id="HNpGyz6ydOrOyHHForkR-12" value="Employe" style="shape=table;startSize=30;container=1;collapsible=1;childLayout=tableLayout;fixedRows=1;rowLines=0;fontStyle=1;align=center;resizeLast=1;html=1;whiteSpace=wrap;fillColor=#f8cecc;strokeColor=#b85450;" parent="1" vertex="1">
          <mxGeometry x="500" y="980" width="470" height="370" as="geometry">
            <mxRectangle x="500" y="980" width="90" height="30" as="alternateBounds" />
          </mxGeometry>
        </mxCell>
        <mxCell id="HNpGyz6ydOrOyHHForkR-13" style="shape=tableRow;horizontal=0;startSize=0;swimlaneHead=0;swimlaneBody=0;fillColor=none;collapsible=0;dropTarget=0;points=[[0,0.5],[1,0.5]];portConstraint=eastwest;top=0;left=0;right=0;bottom=0;html=1;" parent="HNpGyz6ydOrOyHHForkR-12" vertex="1">
          <mxGeometry y="30" width="470" height="30" as="geometry" />
        </mxCell>
        <mxCell id="HNpGyz6ydOrOyHHForkR-14" value="PK" style="shape=partialRectangle;connectable=0;fillColor=none;top=0;left=0;bottom=0;right=0;fontStyle=1;overflow=hidden;html=1;whiteSpace=wrap;" parent="HNpGyz6ydOrOyHHForkR-13" vertex="1">
          <mxGeometry width="60" height="30" as="geometry">
            <mxRectangle width="60" height="30" as="alternateBounds" />
          </mxGeometry>
        </mxCell>
        <mxCell id="HNpGyz6ydOrOyHHForkR-15" value="id&lt;span style=&quot;white-space: pre;&quot;&gt;&#x9;&lt;/span&gt;&lt;span style=&quot;white-space: pre;&quot;&gt;&#x9;&lt;/span&gt;&lt;span style=&quot;white-space: pre;&quot;&gt;&#x9;&lt;/span&gt;&lt;span style=&quot;white-space: pre;&quot;&gt;&#x9;&lt;/span&gt;&lt;span style=&quot;white-space: pre;&quot;&gt;&#x9;&lt;span style=&quot;white-space: pre;&quot;&gt;&#x9;&lt;/span&gt;&lt;span style=&quot;white-space: pre;&quot;&gt;&#x9;&lt;span style=&quot;white-space: pre;&quot;&gt;&#x9;&lt;/span&gt;&lt;span style=&quot;white-space: pre;&quot;&gt;&#x9;&lt;/span&gt;&lt;/span&gt;&lt;/span&gt;SERIAL" style="shape=partialRectangle;connectable=0;fillColor=none;top=0;left=0;bottom=0;right=0;align=left;spacingLeft=6;fontStyle=5;overflow=hidden;html=1;whiteSpace=wrap;" parent="HNpGyz6ydOrOyHHForkR-13" vertex="1">
          <mxGeometry x="60" width="410" height="30" as="geometry">
            <mxRectangle width="410" height="30" as="alternateBounds" />
          </mxGeometry>
        </mxCell>
        <mxCell id="HNpGyz6ydOrOyHHForkR-16" value="" style="shape=tableRow;horizontal=0;startSize=0;swimlaneHead=0;swimlaneBody=0;fillColor=none;collapsible=0;dropTarget=0;points=[[0,0.5],[1,0.5]];portConstraint=eastwest;top=0;left=0;right=0;bottom=0;html=1;" parent="HNpGyz6ydOrOyHHForkR-12" vertex="1">
          <mxGeometry y="60" width="470" height="30" as="geometry" />
        </mxCell>
        <mxCell id="HNpGyz6ydOrOyHHForkR-17" value="NN" style="shape=partialRectangle;connectable=0;fillColor=none;top=0;left=0;bottom=0;right=0;fontStyle=1;overflow=hidden;html=1;whiteSpace=wrap;" parent="HNpGyz6ydOrOyHHForkR-16" vertex="1">
          <mxGeometry width="60" height="30" as="geometry">
            <mxRectangle width="60" height="30" as="alternateBounds" />
          </mxGeometry>
        </mxCell>
        <mxCell id="HNpGyz6ydOrOyHHForkR-18" value="nom&lt;span style=&quot;white-space: pre;&quot;&gt;&#x9;&lt;/span&gt;&lt;span style=&quot;white-space: pre;&quot;&gt;&#x9;&lt;span style=&quot;white-space: pre;&quot;&gt;&#x9;&lt;/span&gt;&lt;span style=&quot;white-space: pre;&quot;&gt;&#x9;&lt;/span&gt;&lt;span style=&quot;white-space: pre;&quot;&gt;&#x9;&lt;/span&gt;&lt;span style=&quot;white-space: pre;&quot;&gt;&#x9;&lt;/span&gt;&lt;span style=&quot;white-space: pre;&quot;&gt;&#x9;&lt;/span&gt;&lt;span style=&quot;white-space: pre;&quot;&gt;&#x9;&lt;/span&gt;&lt;/span&gt;VARCHAR(32)" style="shape=partialRectangle;connectable=0;fillColor=none;top=0;left=0;bottom=0;right=0;align=left;spacingLeft=6;fontStyle=5;overflow=hidden;html=1;whiteSpace=wrap;" parent="HNpGyz6ydOrOyHHForkR-16" vertex="1">
          <mxGeometry x="60" width="410" height="30" as="geometry">
            <mxRectangle width="410" height="30" as="alternateBounds" />
          </mxGeometry>
        </mxCell>
        <mxCell id="HNpGyz6ydOrOyHHForkR-19" value="" style="shape=tableRow;horizontal=0;startSize=0;swimlaneHead=0;swimlaneBody=0;fillColor=none;collapsible=0;dropTarget=0;points=[[0,0.5],[1,0.5]];portConstraint=eastwest;top=0;left=0;right=0;bottom=1;html=1;" parent="HNpGyz6ydOrOyHHForkR-12" vertex="1">
          <mxGeometry y="90" width="470" height="40" as="geometry" />
        </mxCell>
        <mxCell id="HNpGyz6ydOrOyHHForkR-20" value="NN" style="shape=partialRectangle;connectable=0;fillColor=none;top=0;left=0;bottom=0;right=0;fontStyle=1;overflow=hidden;html=1;whiteSpace=wrap;" parent="HNpGyz6ydOrOyHHForkR-19" vertex="1">
          <mxGeometry width="60" height="40" as="geometry">
            <mxRectangle width="60" height="40" as="alternateBounds" />
          </mxGeometry>
        </mxCell>
        <mxCell id="HNpGyz6ydOrOyHHForkR-21" value="prenom&lt;span style=&quot;white-space: pre;&quot;&gt;&#x9;&lt;/span&gt;&lt;span style=&quot;white-space: pre;&quot;&gt;&#x9;&lt;span style=&quot;white-space: pre;&quot;&gt;&#x9;&lt;/span&gt;&lt;span style=&quot;white-space: pre;&quot;&gt;&#x9;&lt;/span&gt;&lt;span style=&quot;white-space: pre;&quot;&gt;&#x9;&lt;/span&gt;&lt;span style=&quot;white-space: pre;&quot;&gt;&#x9;&lt;/span&gt;&lt;span style=&quot;white-space: pre;&quot;&gt;&#x9;&lt;/span&gt;&lt;span style=&quot;white-space: pre;&quot;&gt;&#x9;&lt;/span&gt;&lt;/span&gt;VARCHAR(32)" style="shape=partialRectangle;connectable=0;fillColor=none;top=0;left=0;bottom=0;right=0;align=left;spacingLeft=6;fontStyle=5;overflow=hidden;html=1;whiteSpace=wrap;" parent="HNpGyz6ydOrOyHHForkR-19" vertex="1">
          <mxGeometry x="60" width="410" height="40" as="geometry">
            <mxRectangle width="410" height="40" as="alternateBounds" />
          </mxGeometry>
        </mxCell>
        <mxCell id="HNpGyz6ydOrOyHHForkR-22" value="" style="shape=tableRow;horizontal=0;startSize=0;swimlaneHead=0;swimlaneBody=0;fillColor=none;collapsible=0;dropTarget=0;points=[[0,0.5],[1,0.5]];portConstraint=eastwest;top=0;left=0;right=0;bottom=0;html=1;" parent="HNpGyz6ydOrOyHHForkR-12" vertex="1">
          <mxGeometry y="130" width="470" height="40" as="geometry" />
        </mxCell>
        <mxCell id="HNpGyz6ydOrOyHHForkR-23" value="NN" style="shape=partialRectangle;connectable=0;fillColor=none;top=0;left=0;bottom=0;right=0;editable=1;overflow=hidden;html=1;whiteSpace=wrap;" parent="HNpGyz6ydOrOyHHForkR-22" vertex="1">
          <mxGeometry width="60" height="40" as="geometry">
            <mxRectangle width="60" height="40" as="alternateBounds" />
          </mxGeometry>
        </mxCell>
        <mxCell id="HNpGyz6ydOrOyHHForkR-24" value="genre&lt;span style=&quot;white-space: pre;&quot;&gt;&#x9;&lt;/span&gt;&lt;span style=&quot;white-space: pre;&quot;&gt;&#x9;&lt;span style=&quot;white-space: pre;&quot;&gt;&#x9;&lt;/span&gt;&lt;span style=&quot;white-space: pre;&quot;&gt;&#x9;&lt;/span&gt;&lt;span style=&quot;white-space: pre;&quot;&gt;&#x9;&lt;/span&gt;&lt;span style=&quot;white-space: pre;&quot;&gt;&#x9;&lt;/span&gt;&lt;span style=&quot;white-space: pre;&quot;&gt;&#x9;&lt;/span&gt;&lt;span style=&quot;white-space: pre;&quot;&gt;&#x9;&lt;/span&gt;G&lt;/span&gt;ENDER (enum)" style="shape=partialRectangle;connectable=0;fillColor=none;top=0;left=0;bottom=0;right=0;align=left;spacingLeft=6;overflow=hidden;html=1;whiteSpace=wrap;" parent="HNpGyz6ydOrOyHHForkR-22" vertex="1">
          <mxGeometry x="60" width="410" height="40" as="geometry">
            <mxRectangle width="410" height="40" as="alternateBounds" />
          </mxGeometry>
        </mxCell>
        <mxCell id="HNpGyz6ydOrOyHHForkR-25" value="" style="shape=tableRow;horizontal=0;startSize=0;swimlaneHead=0;swimlaneBody=0;fillColor=none;collapsible=0;dropTarget=0;points=[[0,0.5],[1,0.5]];portConstraint=eastwest;top=0;left=0;right=0;bottom=0;html=1;" parent="HNpGyz6ydOrOyHHForkR-12" vertex="1">
          <mxGeometry y="170" width="470" height="40" as="geometry" />
        </mxCell>
        <mxCell id="HNpGyz6ydOrOyHHForkR-26" value="NN" style="shape=partialRectangle;connectable=0;fillColor=none;top=0;left=0;bottom=0;right=0;editable=1;overflow=hidden;html=1;whiteSpace=wrap;" parent="HNpGyz6ydOrOyHHForkR-25" vertex="1">
          <mxGeometry width="60" height="40" as="geometry">
            <mxRectangle width="60" height="40" as="alternateBounds" />
          </mxGeometry>
        </mxCell>
        <mxCell id="HNpGyz6ydOrOyHHForkR-27" value="nas&lt;span style=&quot;white-space: pre;&quot;&gt;&#x9;&lt;/span&gt;&lt;span style=&quot;white-space: pre;&quot;&gt;&#x9;&lt;/span&gt;&lt;span style=&quot;white-space: pre;&quot;&gt;&#x9;&lt;span style=&quot;white-space: pre;&quot;&gt;&#x9;&lt;/span&gt;&lt;span style=&quot;white-space: pre;&quot;&gt;&#x9;&lt;/span&gt;&lt;span style=&quot;white-space: pre;&quot;&gt;&#x9;&lt;/span&gt;&lt;span style=&quot;white-space: pre;&quot;&gt;&#x9;&lt;/span&gt;&lt;span style=&quot;white-space: pre;&quot;&gt;&#x9;&lt;/span&gt;&lt;span style=&quot;white-space: pre;&quot;&gt;&#x9;&lt;/span&gt;&lt;/span&gt;CHAR(9)" style="shape=partialRectangle;connectable=0;fillColor=none;top=0;left=0;bottom=0;right=0;align=left;spacingLeft=6;overflow=hidden;html=1;whiteSpace=wrap;" parent="HNpGyz6ydOrOyHHForkR-25" vertex="1">
          <mxGeometry x="60" width="410" height="40" as="geometry">
            <mxRectangle width="410" height="40" as="alternateBounds" />
          </mxGeometry>
        </mxCell>
        <mxCell id="HNpGyz6ydOrOyHHForkR-28" style="shape=tableRow;horizontal=0;startSize=0;swimlaneHead=0;swimlaneBody=0;fillColor=none;collapsible=0;dropTarget=0;points=[[0,0.5],[1,0.5]];portConstraint=eastwest;top=0;left=0;right=0;bottom=0;html=1;" parent="HNpGyz6ydOrOyHHForkR-12" vertex="1">
          <mxGeometry y="210" width="470" height="40" as="geometry" />
        </mxCell>
        <mxCell id="HNpGyz6ydOrOyHHForkR-29" value="NN" style="shape=partialRectangle;connectable=0;fillColor=none;top=0;left=0;bottom=0;right=0;editable=1;overflow=hidden;html=1;whiteSpace=wrap;" parent="HNpGyz6ydOrOyHHForkR-28" vertex="1">
          <mxGeometry width="60" height="40" as="geometry">
            <mxRectangle width="60" height="40" as="alternateBounds" />
          </mxGeometry>
        </mxCell>
        <mxCell id="HNpGyz6ydOrOyHHForkR-30" value="date_embauche&lt;span style=&quot;white-space: pre;&quot;&gt;&#x9;&lt;/span&gt;&lt;span style=&quot;white-space: pre;&quot;&gt;&#x9;&lt;/span&gt;DATE&lt;span style=&quot;white-space: pre;&quot;&gt;&#x9;&lt;/span&gt;&lt;span style=&quot;white-space: pre;&quot;&gt;&#x9;&lt;span style=&quot;white-space: pre;&quot;&gt;&#x9;&lt;/span&gt;&lt;/span&gt;DEFAULT CURRENT_DATE" style="shape=partialRectangle;connectable=0;fillColor=none;top=0;left=0;bottom=0;right=0;align=left;spacingLeft=6;overflow=hidden;html=1;whiteSpace=wrap;" parent="HNpGyz6ydOrOyHHForkR-28" vertex="1">
          <mxGeometry x="60" width="410" height="40" as="geometry">
            <mxRectangle width="410" height="40" as="alternateBounds" />
          </mxGeometry>
        </mxCell>
        <mxCell id="HNpGyz6ydOrOyHHForkR-31" style="shape=tableRow;horizontal=0;startSize=0;swimlaneHead=0;swimlaneBody=0;fillColor=none;collapsible=0;dropTarget=0;points=[[0,0.5],[1,0.5]];portConstraint=eastwest;top=0;left=0;right=0;bottom=0;html=1;" parent="HNpGyz6ydOrOyHHForkR-12" vertex="1">
          <mxGeometry y="250" width="470" height="40" as="geometry" />
        </mxCell>
        <mxCell id="HNpGyz6ydOrOyHHForkR-32" value="NN" style="shape=partialRectangle;connectable=0;fillColor=none;top=0;left=0;bottom=0;right=0;editable=1;overflow=hidden;html=1;whiteSpace=wrap;" parent="HNpGyz6ydOrOyHHForkR-31" vertex="1">
          <mxGeometry width="60" height="40" as="geometry">
            <mxRectangle width="60" height="40" as="alternateBounds" />
          </mxGeometry>
        </mxCell>
        <mxCell id="HNpGyz6ydOrOyHHForkR-33" value="salaire_horaire&lt;span style=&quot;white-space: pre;&quot;&gt;&#x9;&lt;/span&gt;&lt;span style=&quot;white-space: pre;&quot;&gt;&#x9;&lt;/span&gt;NUMERIC (5,2)&lt;span style=&quot;white-space: pre;&quot;&gt;&#x9;&lt;/span&gt;DEFAULT 27.50&lt;span style=&quot;white-space: pre;&quot;&gt;&#x9;&lt;/span&gt;&lt;span style=&quot;white-space: pre;&quot;&gt;&#x9;&lt;/span&gt;&lt;span style=&quot;white-space: pre;&quot;&gt;&#x9;&lt;/span&gt;" style="shape=partialRectangle;connectable=0;fillColor=none;top=0;left=0;bottom=0;right=0;align=left;spacingLeft=6;overflow=hidden;html=1;whiteSpace=wrap;" parent="HNpGyz6ydOrOyHHForkR-31" vertex="1">
          <mxGeometry x="60" width="410" height="40" as="geometry">
            <mxRectangle width="410" height="40" as="alternateBounds" />
          </mxGeometry>
        </mxCell>
        <mxCell id="HNpGyz6ydOrOyHHForkR-34" style="shape=tableRow;horizontal=0;startSize=0;swimlaneHead=0;swimlaneBody=0;fillColor=none;collapsible=0;dropTarget=0;points=[[0,0.5],[1,0.5]];portConstraint=eastwest;top=0;left=0;right=0;bottom=0;html=1;" parent="HNpGyz6ydOrOyHHForkR-12" vertex="1">
          <mxGeometry y="290" width="470" height="40" as="geometry" />
        </mxCell>
        <mxCell id="HNpGyz6ydOrOyHHForkR-35" value="NN" style="shape=partialRectangle;connectable=0;fillColor=none;top=0;left=0;bottom=0;right=0;editable=1;overflow=hidden;html=1;whiteSpace=wrap;" parent="HNpGyz6ydOrOyHHForkR-34" vertex="1">
          <mxGeometry width="60" height="40" as="geometry">
            <mxRectangle width="60" height="40" as="alternateBounds" />
          </mxGeometry>
        </mxCell>
        <mxCell id="HNpGyz6ydOrOyHHForkR-36" value="poste&lt;span style=&quot;white-space: pre;&quot;&gt;&#x9;&lt;/span&gt;&lt;span style=&quot;white-space: pre;&quot;&gt;&#x9;&lt;/span&gt;&lt;span style=&quot;white-space: pre;&quot;&gt;&#x9;&lt;/span&gt;&lt;span style=&quot;white-space: pre;&quot;&gt;&#x9;&lt;/span&gt;&lt;span style=&quot;white-space: pre;&quot;&gt;&#x9;&lt;/span&gt;&lt;span style=&quot;white-space: pre;&quot;&gt;&#x9;&lt;/span&gt;&lt;span style=&quot;white-space: pre;&quot;&gt;&#x9;&lt;/span&gt;&lt;span style=&quot;white-space: pre;&quot;&gt;&#x9;&lt;/span&gt;VARCHAR(64)" style="shape=partialRectangle;connectable=0;fillColor=none;top=0;left=0;bottom=0;right=0;align=left;spacingLeft=6;overflow=hidden;html=1;whiteSpace=wrap;" parent="HNpGyz6ydOrOyHHForkR-34" vertex="1">
          <mxGeometry x="60" width="410" height="40" as="geometry">
            <mxRectangle width="410" height="40" as="alternateBounds" />
          </mxGeometry>
        </mxCell>
        <mxCell id="HNpGyz6ydOrOyHHForkR-37" style="shape=tableRow;horizontal=0;startSize=0;swimlaneHead=0;swimlaneBody=0;fillColor=none;collapsible=0;dropTarget=0;points=[[0,0.5],[1,0.5]];portConstraint=eastwest;top=0;left=0;right=0;bottom=0;html=1;" parent="HNpGyz6ydOrOyHHForkR-12" vertex="1">
          <mxGeometry y="330" width="470" height="40" as="geometry" />
        </mxCell>
        <mxCell id="HNpGyz6ydOrOyHHForkR-38" value="NN" style="shape=partialRectangle;connectable=0;fillColor=none;top=0;left=0;bottom=0;right=0;editable=1;overflow=hidden;html=1;whiteSpace=wrap;" parent="HNpGyz6ydOrOyHHForkR-37" vertex="1">
          <mxGeometry width="60" height="40" as="geometry">
            <mxRectangle width="60" height="40" as="alternateBounds" />
          </mxGeometry>
        </mxCell>
        <mxCell id="HNpGyz6ydOrOyHHForkR-39" value="departement&lt;span style=&quot;white-space: pre;&quot;&gt;&#x9;&lt;/span&gt;&lt;span style=&quot;white-space: pre;&quot;&gt;&#x9;&lt;/span&gt;&lt;span style=&quot;white-space: pre;&quot;&gt;&#x9;&lt;/span&gt;&lt;span style=&quot;white-space: pre;&quot;&gt;&#x9;&lt;/span&gt;&lt;span style=&quot;white-space: pre;&quot;&gt;&#x9;&lt;/span&gt;&lt;span style=&quot;white-space: pre;&quot;&gt;&#x9;&lt;/span&gt;&lt;span style=&quot;white-space: pre;&quot;&gt;&#x9;&lt;/span&gt;VARCHAR(64)" style="shape=partialRectangle;connectable=0;fillColor=none;top=0;left=0;bottom=0;right=0;align=left;spacingLeft=6;overflow=hidden;html=1;whiteSpace=wrap;" parent="HNpGyz6ydOrOyHHForkR-37" vertex="1">
          <mxGeometry x="60" width="410" height="40" as="geometry">
            <mxRectangle width="410" height="40" as="alternateBounds" />
          </mxGeometry>
        </mxCell>
        <mxCell id="HNpGyz6ydOrOyHHForkR-44" value="Troncon" style="shape=table;startSize=30;container=1;collapsible=1;childLayout=tableLayout;fixedRows=1;rowLines=0;fontStyle=1;align=center;resizeLast=1;html=1;fillColor=#f8cecc;strokeColor=#b85450;" parent="1" vertex="1">
          <mxGeometry x="570" y="-5" width="440" height="212" as="geometry">
            <mxRectangle x="570" y="-5" width="80" height="30" as="alternateBounds" />
          </mxGeometry>
        </mxCell>
        <mxCell id="HNpGyz6ydOrOyHHForkR-45" value="" style="shape=tableRow;horizontal=0;startSize=0;swimlaneHead=0;swimlaneBody=0;fillColor=none;collapsible=0;dropTarget=0;points=[[0,0.5],[1,0.5]];portConstraint=eastwest;top=0;left=0;right=0;bottom=1;" parent="HNpGyz6ydOrOyHHForkR-44" vertex="1">
          <mxGeometry y="30" width="440" height="30" as="geometry" />
        </mxCell>
        <mxCell id="HNpGyz6ydOrOyHHForkR-46" value="PK" style="shape=partialRectangle;connectable=0;fillColor=none;top=0;left=0;bottom=0;right=0;fontStyle=1;overflow=hidden;whiteSpace=wrap;html=1;" parent="HNpGyz6ydOrOyHHForkR-45" vertex="1">
          <mxGeometry width="53.75" height="30" as="geometry">
            <mxRectangle width="53.75" height="30" as="alternateBounds" />
          </mxGeometry>
        </mxCell>
        <mxCell id="HNpGyz6ydOrOyHHForkR-47" value="id&lt;span style=&quot;white-space: pre;&quot;&gt;&#x9;&lt;/span&gt;&lt;span style=&quot;white-space: pre;&quot;&gt;&#x9;&lt;/span&gt;&lt;span style=&quot;white-space: pre;&quot;&gt;&#x9;&lt;/span&gt;&lt;span style=&quot;white-space: pre;&quot;&gt;&#x9;&lt;/span&gt;&lt;span style=&quot;white-space: pre;&quot;&gt;&#x9;&lt;/span&gt;&lt;span style=&quot;white-space: pre;&quot;&gt;&#x9;&lt;/span&gt;&lt;span style=&quot;white-space: pre;&quot;&gt;&#x9;&lt;/span&gt;&lt;span style=&quot;white-space: pre;&quot;&gt;&#x9;&lt;/span&gt;&lt;span style=&quot;white-space: pre;&quot;&gt;&#x9;&lt;/span&gt;SERIAL" style="shape=partialRectangle;connectable=0;fillColor=none;top=0;left=0;bottom=0;right=0;align=left;spacingLeft=6;fontStyle=5;overflow=hidden;whiteSpace=wrap;html=1;" parent="HNpGyz6ydOrOyHHForkR-45" vertex="1">
          <mxGeometry x="53.75" width="386.25" height="30" as="geometry">
            <mxRectangle width="386.25" height="30" as="alternateBounds" />
          </mxGeometry>
        </mxCell>
        <mxCell id="HNpGyz6ydOrOyHHForkR-48" value="" style="shape=tableRow;horizontal=0;startSize=0;swimlaneHead=0;swimlaneBody=0;fillColor=none;collapsible=0;dropTarget=0;points=[[0,0.5],[1,0.5]];portConstraint=eastwest;top=0;left=0;right=0;bottom=0;" parent="HNpGyz6ydOrOyHHForkR-44" vertex="1">
          <mxGeometry y="60" width="440" height="30" as="geometry" />
        </mxCell>
        <mxCell id="HNpGyz6ydOrOyHHForkR-49" value="NN" style="shape=partialRectangle;connectable=0;fillColor=none;top=0;left=0;bottom=0;right=0;editable=1;overflow=hidden;whiteSpace=wrap;html=1;" parent="HNpGyz6ydOrOyHHForkR-48" vertex="1">
          <mxGeometry width="53.75" height="30" as="geometry">
            <mxRectangle width="53.75" height="30" as="alternateBounds" />
          </mxGeometry>
        </mxCell>
        <mxCell id="HNpGyz6ydOrOyHHForkR-50" value="VARCHAR(32) nom_rue" style="shape=partialRectangle;connectable=0;fillColor=none;top=0;left=0;bottom=0;right=0;align=left;spacingLeft=6;overflow=hidden;whiteSpace=wrap;html=1;" parent="HNpGyz6ydOrOyHHForkR-48" vertex="1">
          <mxGeometry x="53.75" width="386.25" height="30" as="geometry">
            <mxRectangle width="386.25" height="30" as="alternateBounds" />
          </mxGeometry>
        </mxCell>
        <mxCell id="HNpGyz6ydOrOyHHForkR-51" value="" style="shape=tableRow;horizontal=0;startSize=0;swimlaneHead=0;swimlaneBody=0;fillColor=none;collapsible=0;dropTarget=0;points=[[0,0.5],[1,0.5]];portConstraint=eastwest;top=0;left=0;right=0;bottom=0;" parent="HNpGyz6ydOrOyHHForkR-44" vertex="1">
          <mxGeometry y="90" width="440" height="32" as="geometry" />
        </mxCell>
        <mxCell id="HNpGyz6ydOrOyHHForkR-52" value="NN" style="shape=partialRectangle;connectable=0;fillColor=none;top=0;left=0;bottom=0;right=0;editable=1;overflow=hidden;whiteSpace=wrap;html=1;" parent="HNpGyz6ydOrOyHHForkR-51" vertex="1">
          <mxGeometry width="53.75" height="32" as="geometry">
            <mxRectangle width="53.75" height="32" as="alternateBounds" />
          </mxGeometry>
        </mxCell>
        <mxCell id="HNpGyz6ydOrOyHHForkR-53" value="DECIMAL(9,1) longueur (check between 0.0 and &lt;span dir=&quot;ltr&quot; role=&quot;presentation&quot; style=&quot;left: 531.943px; top: 666.935px; font-size: 13.25px; font-family: sans-serif; transform: scaleX(0.958306);&quot;&gt;100000.0)&lt;/span&gt;" style="shape=partialRectangle;connectable=0;fillColor=none;top=0;left=0;bottom=0;right=0;align=left;spacingLeft=6;overflow=hidden;whiteSpace=wrap;html=1;" parent="HNpGyz6ydOrOyHHForkR-51" vertex="1">
          <mxGeometry x="53.75" width="386.25" height="32" as="geometry">
            <mxRectangle width="386.25" height="32" as="alternateBounds" />
          </mxGeometry>
        </mxCell>
        <mxCell id="HNpGyz6ydOrOyHHForkR-54" value="" style="shape=tableRow;horizontal=0;startSize=0;swimlaneHead=0;swimlaneBody=0;fillColor=none;collapsible=0;dropTarget=0;points=[[0,0.5],[1,0.5]];portConstraint=eastwest;top=0;left=0;right=0;bottom=0;" parent="HNpGyz6ydOrOyHHForkR-44" vertex="1">
          <mxGeometry y="122" width="440" height="30" as="geometry" />
        </mxCell>
        <mxCell id="HNpGyz6ydOrOyHHForkR-55" value="NN" style="shape=partialRectangle;connectable=0;fillColor=none;top=0;left=0;bottom=0;right=0;editable=1;overflow=hidden;whiteSpace=wrap;html=1;" parent="HNpGyz6ydOrOyHHForkR-54" vertex="1">
          <mxGeometry width="53.75" height="30" as="geometry">
            <mxRectangle width="53.75" height="30" as="alternateBounds" />
          </mxGeometry>
        </mxCell>
        <mxCell id="HNpGyz6ydOrOyHHForkR-56" value="INTEGER lim_vitesse (check between 25 and 120)" style="shape=partialRectangle;connectable=0;fillColor=none;top=0;left=0;bottom=0;right=0;align=left;spacingLeft=6;overflow=hidden;whiteSpace=wrap;html=1;" parent="HNpGyz6ydOrOyHHForkR-54" vertex="1">
          <mxGeometry x="53.75" width="386.25" height="30" as="geometry">
            <mxRectangle width="386.25" height="30" as="alternateBounds" />
          </mxGeometry>
        </mxCell>
        <mxCell id="HNpGyz6ydOrOyHHForkR-57" value="" style="shape=tableRow;horizontal=0;startSize=0;swimlaneHead=0;swimlaneBody=0;fillColor=none;collapsible=0;dropTarget=0;points=[[0,0.5],[1,0.5]];portConstraint=eastwest;top=0;left=0;right=0;bottom=0;" parent="HNpGyz6ydOrOyHHForkR-44" vertex="1">
          <mxGeometry y="152" width="440" height="30" as="geometry" />
        </mxCell>
        <mxCell id="HNpGyz6ydOrOyHHForkR-58" value="NN" style="shape=partialRectangle;connectable=0;fillColor=none;top=0;left=0;bottom=0;right=0;editable=1;overflow=hidden;whiteSpace=wrap;html=1;" parent="HNpGyz6ydOrOyHHForkR-57" vertex="1">
          <mxGeometry width="53.75" height="30" as="geometry">
            <mxRectangle width="53.75" height="30" as="alternateBounds" />
          </mxGeometry>
        </mxCell>
        <mxCell id="HNpGyz6ydOrOyHHForkR-59" value="INTEGER nb_voies (check between 1 and 8)&lt;span style=&quot;white-space: pre;&quot;&gt;&#x9;&lt;/span&gt;&lt;span style=&quot;white-space: pre;&quot;&gt;&#x9;&lt;/span&gt;DEFAULT 1" style="shape=partialRectangle;connectable=0;fillColor=none;top=0;left=0;bottom=0;right=0;align=left;spacingLeft=6;overflow=hidden;whiteSpace=wrap;html=1;" parent="HNpGyz6ydOrOyHHForkR-57" vertex="1">
          <mxGeometry x="53.75" width="386.25" height="30" as="geometry">
            <mxRectangle width="386.25" height="30" as="alternateBounds" />
          </mxGeometry>
        </mxCell>
        <mxCell id="HNpGyz6ydOrOyHHForkR-60" value="" style="shape=tableRow;horizontal=0;startSize=0;swimlaneHead=0;swimlaneBody=0;fillColor=none;collapsible=0;dropTarget=0;points=[[0,0.5],[1,0.5]];portConstraint=eastwest;top=0;left=0;right=0;bottom=0;" parent="HNpGyz6ydOrOyHHForkR-44" vertex="1">
          <mxGeometry y="182" width="440" height="30" as="geometry" />
        </mxCell>
        <mxCell id="HNpGyz6ydOrOyHHForkR-61" value="&lt;div&gt;NN,&lt;/div&gt;" style="shape=partialRectangle;connectable=0;fillColor=none;top=0;left=0;bottom=0;right=0;editable=1;overflow=hidden;whiteSpace=wrap;html=1;" parent="HNpGyz6ydOrOyHHForkR-60" vertex="1">
          <mxGeometry width="53.75" height="30" as="geometry">
            <mxRectangle width="53.75" height="30" as="alternateBounds" />
          </mxGeometry>
        </mxCell>
        <mxCell id="HNpGyz6ydOrOyHHForkR-62" value="VARCHAR 30 type_pavage ENUM(asphalte,ciment,pavé brique, pavé pierre)" style="shape=partialRectangle;connectable=0;fillColor=none;top=0;left=0;bottom=0;right=0;align=left;spacingLeft=6;overflow=hidden;whiteSpace=wrap;html=1;" parent="HNpGyz6ydOrOyHHForkR-60" vertex="1">
          <mxGeometry x="53.75" width="386.25" height="30" as="geometry">
            <mxRectangle width="386.25" height="30" as="alternateBounds" />
          </mxGeometry>
        </mxCell>
        <mxCell id="HNpGyz6ydOrOyHHForkR-63" value="Intersection" style="shape=table;startSize=30;container=1;collapsible=1;childLayout=tableLayout;fixedRows=1;rowLines=0;fontStyle=1;align=center;resizeLast=1;html=1;fillColor=#f8cecc;strokeColor=#b85450;" parent="1" vertex="1">
          <mxGeometry x="570" y="400" width="439" height="160" as="geometry">
            <mxRectangle x="570" y="400" width="100" height="30" as="alternateBounds" />
          </mxGeometry>
        </mxCell>
        <mxCell id="HNpGyz6ydOrOyHHForkR-64" value="" style="shape=tableRow;horizontal=0;startSize=0;swimlaneHead=0;swimlaneBody=0;fillColor=none;collapsible=0;dropTarget=0;points=[[0,0.5],[1,0.5]];portConstraint=eastwest;top=0;left=0;right=0;bottom=1;" parent="HNpGyz6ydOrOyHHForkR-63" vertex="1">
          <mxGeometry y="30" width="439" height="30" as="geometry" />
        </mxCell>
        <mxCell id="HNpGyz6ydOrOyHHForkR-65" value="PK" style="shape=partialRectangle;connectable=0;fillColor=none;top=0;left=0;bottom=0;right=0;fontStyle=1;overflow=hidden;whiteSpace=wrap;html=1;" parent="HNpGyz6ydOrOyHHForkR-64" vertex="1">
          <mxGeometry width="54.75" height="30" as="geometry">
            <mxRectangle width="54.75" height="30" as="alternateBounds" />
          </mxGeometry>
        </mxCell>
        <mxCell id="HNpGyz6ydOrOyHHForkR-66" value="INT identifiant (checkBETWEEN 10000 AND 99999)" style="shape=partialRectangle;connectable=0;fillColor=none;top=0;left=0;bottom=0;right=0;align=left;spacingLeft=6;fontStyle=5;overflow=hidden;whiteSpace=wrap;html=1;" parent="HNpGyz6ydOrOyHHForkR-64" vertex="1">
          <mxGeometry x="54.75" width="384.25" height="30" as="geometry">
            <mxRectangle width="384.25" height="30" as="alternateBounds" />
          </mxGeometry>
        </mxCell>
        <mxCell id="HNpGyz6ydOrOyHHForkR-67" value="" style="shape=tableRow;horizontal=0;startSize=0;swimlaneHead=0;swimlaneBody=0;fillColor=none;collapsible=0;dropTarget=0;points=[[0,0.5],[1,0.5]];portConstraint=eastwest;top=0;left=0;right=0;bottom=0;" parent="HNpGyz6ydOrOyHHForkR-63" vertex="1">
          <mxGeometry y="60" width="439" height="30" as="geometry" />
        </mxCell>
        <mxCell id="HNpGyz6ydOrOyHHForkR-68" value="NN" style="shape=partialRectangle;connectable=0;fillColor=none;top=0;left=0;bottom=0;right=0;editable=1;overflow=hidden;whiteSpace=wrap;html=1;" parent="HNpGyz6ydOrOyHHForkR-67" vertex="1">
          <mxGeometry width="54.75" height="30" as="geometry">
            <mxRectangle width="54.75" height="30" as="alternateBounds" />
          </mxGeometry>
        </mxCell>
        <mxCell id="HNpGyz6ydOrOyHHForkR-69" value="DECIMAL(8,6) latitude " style="shape=partialRectangle;connectable=0;fillColor=none;top=0;left=0;bottom=0;right=0;align=left;spacingLeft=6;overflow=hidden;whiteSpace=wrap;html=1;" parent="HNpGyz6ydOrOyHHForkR-67" vertex="1">
          <mxGeometry x="54.75" width="384.25" height="30" as="geometry">
            <mxRectangle width="384.25" height="30" as="alternateBounds" />
          </mxGeometry>
        </mxCell>
        <mxCell id="HNpGyz6ydOrOyHHForkR-70" value="" style="shape=tableRow;horizontal=0;startSize=0;swimlaneHead=0;swimlaneBody=0;fillColor=none;collapsible=0;dropTarget=0;points=[[0,0.5],[1,0.5]];portConstraint=eastwest;top=0;left=0;right=0;bottom=0;" parent="HNpGyz6ydOrOyHHForkR-63" vertex="1">
          <mxGeometry y="90" width="439" height="30" as="geometry" />
        </mxCell>
        <mxCell id="HNpGyz6ydOrOyHHForkR-71" value="NN" style="shape=partialRectangle;connectable=0;fillColor=none;top=0;left=0;bottom=0;right=0;editable=1;overflow=hidden;whiteSpace=wrap;html=1;" parent="HNpGyz6ydOrOyHHForkR-70" vertex="1">
          <mxGeometry width="54.75" height="30" as="geometry">
            <mxRectangle width="54.75" height="30" as="alternateBounds" />
          </mxGeometry>
        </mxCell>
        <mxCell id="HNpGyz6ydOrOyHHForkR-72" value="DECIMAL(8,6) longitude " style="shape=partialRectangle;connectable=0;fillColor=none;top=0;left=0;bottom=0;right=0;align=left;spacingLeft=6;overflow=hidden;whiteSpace=wrap;html=1;" parent="HNpGyz6ydOrOyHHForkR-70" vertex="1">
          <mxGeometry x="54.75" width="384.25" height="30" as="geometry">
            <mxRectangle width="384.25" height="30" as="alternateBounds" />
          </mxGeometry>
        </mxCell>
        <mxCell id="HNpGyz6ydOrOyHHForkR-73" value="" style="shape=tableRow;horizontal=0;startSize=0;swimlaneHead=0;swimlaneBody=0;fillColor=none;collapsible=0;dropTarget=0;points=[[0,0.5],[1,0.5]];portConstraint=eastwest;top=0;left=0;right=0;bottom=0;" parent="HNpGyz6ydOrOyHHForkR-63" vertex="1">
          <mxGeometry y="120" width="439" height="40" as="geometry" />
        </mxCell>
        <mxCell id="HNpGyz6ydOrOyHHForkR-74" value="" style="shape=partialRectangle;connectable=0;fillColor=none;top=0;left=0;bottom=0;right=0;editable=1;overflow=hidden;whiteSpace=wrap;html=1;" parent="HNpGyz6ydOrOyHHForkR-73" vertex="1">
          <mxGeometry width="54.75" height="40" as="geometry">
            <mxRectangle width="54.75" height="40" as="alternateBounds" />
          </mxGeometry>
        </mxCell>
        <mxCell id="HNpGyz6ydOrOyHHForkR-75" value="VARCHAR 30 type_pavage ENUM(asphalte,ciment,pavé brique, pavé pierre)" style="shape=partialRectangle;connectable=0;fillColor=none;top=0;left=0;bottom=0;right=0;align=left;spacingLeft=6;overflow=hidden;whiteSpace=wrap;html=1;" parent="HNpGyz6ydOrOyHHForkR-73" vertex="1">
          <mxGeometry x="54.75" width="384.25" height="40" as="geometry">
            <mxRectangle width="384.25" height="40" as="alternateBounds" />
          </mxGeometry>
        </mxCell>
        <mxCell id="HNpGyz6ydOrOyHHForkR-98" value="liste_inspection_info_vehicule" style="shape=table;startSize=30;container=1;collapsible=1;childLayout=tableLayout;fixedRows=1;rowLines=0;fontStyle=1;align=center;resizeLast=1;html=1;fillColor=#ffe6cc;strokeColor=#d79b00;" parent="1" vertex="1">
          <mxGeometry x="140" y="560" width="210" height="120" as="geometry">
            <mxRectangle x="140" y="560" width="200" height="30" as="alternateBounds" />
          </mxGeometry>
        </mxCell>
        <mxCell id="HNpGyz6ydOrOyHHForkR-99" value="" style="shape=tableRow;horizontal=0;startSize=0;swimlaneHead=0;swimlaneBody=0;fillColor=none;collapsible=0;dropTarget=0;points=[[0,0.5],[1,0.5]];portConstraint=eastwest;top=0;left=0;right=0;bottom=1;" parent="HNpGyz6ydOrOyHHForkR-98" vertex="1">
          <mxGeometry y="30" width="210" height="30" as="geometry" />
        </mxCell>
        <mxCell id="HNpGyz6ydOrOyHHForkR-100" value="PK" style="shape=partialRectangle;connectable=0;fillColor=none;top=0;left=0;bottom=0;right=0;fontStyle=1;overflow=hidden;whiteSpace=wrap;html=1;" parent="HNpGyz6ydOrOyHHForkR-99" vertex="1">
          <mxGeometry width="30" height="30" as="geometry">
            <mxRectangle width="30" height="30" as="alternateBounds" />
          </mxGeometry>
        </mxCell>
        <mxCell id="HNpGyz6ydOrOyHHForkR-101" value="id&lt;span style=&quot;white-space: pre;&quot;&gt;&#x9;&lt;span style=&quot;white-space: pre;&quot;&gt;&#x9;&lt;/span&gt;&lt;span style=&quot;white-space: pre;&quot;&gt;&#x9;&lt;/span&gt;S&lt;/span&gt;ERIAL&lt;span style=&quot;white-space: pre;&quot;&gt;&#x9;&lt;/span&gt;&lt;span style=&quot;white-space: pre;&quot;&gt;&#x9;&lt;/span&gt;" style="shape=partialRectangle;connectable=0;fillColor=none;top=0;left=0;bottom=0;right=0;align=left;spacingLeft=6;fontStyle=5;overflow=hidden;whiteSpace=wrap;html=1;" parent="HNpGyz6ydOrOyHHForkR-99" vertex="1">
          <mxGeometry x="30" width="180" height="30" as="geometry">
            <mxRectangle width="180" height="30" as="alternateBounds" />
          </mxGeometry>
        </mxCell>
        <mxCell id="HNpGyz6ydOrOyHHForkR-102" value="" style="shape=tableRow;horizontal=0;startSize=0;swimlaneHead=0;swimlaneBody=0;fillColor=none;collapsible=0;dropTarget=0;points=[[0,0.5],[1,0.5]];portConstraint=eastwest;top=0;left=0;right=0;bottom=0;" parent="HNpGyz6ydOrOyHHForkR-98" vertex="1">
          <mxGeometry y="60" width="210" height="30" as="geometry" />
        </mxCell>
        <mxCell id="HNpGyz6ydOrOyHHForkR-103" value="FK" style="shape=partialRectangle;connectable=0;fillColor=none;top=0;left=0;bottom=0;right=0;editable=1;overflow=hidden;whiteSpace=wrap;html=1;" parent="HNpGyz6ydOrOyHHForkR-102" vertex="1">
          <mxGeometry width="30" height="30" as="geometry">
            <mxRectangle width="30" height="30" as="alternateBounds" />
          </mxGeometry>
        </mxCell>
        <mxCell id="HNpGyz6ydOrOyHHForkR-104" value="inspection_id" style="shape=partialRectangle;connectable=0;fillColor=none;top=0;left=0;bottom=0;right=0;align=left;spacingLeft=6;overflow=hidden;whiteSpace=wrap;html=1;" parent="HNpGyz6ydOrOyHHForkR-102" vertex="1">
          <mxGeometry x="30" width="180" height="30" as="geometry">
            <mxRectangle width="180" height="30" as="alternateBounds" />
          </mxGeometry>
        </mxCell>
        <mxCell id="HNpGyz6ydOrOyHHForkR-105" value="" style="shape=tableRow;horizontal=0;startSize=0;swimlaneHead=0;swimlaneBody=0;fillColor=none;collapsible=0;dropTarget=0;points=[[0,0.5],[1,0.5]];portConstraint=eastwest;top=0;left=0;right=0;bottom=0;" parent="HNpGyz6ydOrOyHHForkR-98" vertex="1">
          <mxGeometry y="90" width="210" height="30" as="geometry" />
        </mxCell>
        <mxCell id="HNpGyz6ydOrOyHHForkR-106" value="FK" style="shape=partialRectangle;connectable=0;fillColor=none;top=0;left=0;bottom=0;right=0;editable=1;overflow=hidden;whiteSpace=wrap;html=1;" parent="HNpGyz6ydOrOyHHForkR-105" vertex="1">
          <mxGeometry width="30" height="30" as="geometry">
            <mxRectangle width="30" height="30" as="alternateBounds" />
          </mxGeometry>
        </mxCell>
        <mxCell id="HNpGyz6ydOrOyHHForkR-107" value="inspection_vehicule_id" style="shape=partialRectangle;connectable=0;fillColor=none;top=0;left=0;bottom=0;right=0;align=left;spacingLeft=6;overflow=hidden;whiteSpace=wrap;html=1;" parent="HNpGyz6ydOrOyHHForkR-105" vertex="1">
          <mxGeometry x="30" width="180" height="30" as="geometry">
            <mxRectangle width="180" height="30" as="alternateBounds" />
          </mxGeometry>
        </mxCell>
        <mxCell id="HNpGyz6ydOrOyHHForkR-112" value="" style="endArrow=classic;html=1;rounded=0;exitX=0;exitY=0.5;exitDx=0;exitDy=0;edgeStyle=orthogonalEdgeStyle;" parent="1" source="HNpGyz6ydOrOyHHForkR-102" target="HNpGyz6ydOrOyHHForkR-129" edge="1">
          <mxGeometry width="50" height="50" relative="1" as="geometry">
            <mxPoint x="-70" y="720" as="sourcePoint" />
            <mxPoint x="-74" y="738.7199999999998" as="targetPoint" />
          </mxGeometry>
        </mxCell>
        <mxCell id="HNpGyz6ydOrOyHHForkR-113" value="" style="endArrow=classic;html=1;rounded=0;entryX=0.811;entryY=-0.002;entryDx=0;entryDy=0;entryPerimeter=0;exitX=1;exitY=0.5;exitDx=0;exitDy=0;" parent="1" source="HNpGyz6ydOrOyHHForkR-105" target="Cfk49-MD2ZqIIwPq4QvF-66" edge="1">
          <mxGeometry width="50" height="50" relative="1" as="geometry">
            <mxPoint x="150" y="645" as="sourcePoint" />
            <mxPoint x="-64" y="749" as="targetPoint" />
          </mxGeometry>
        </mxCell>
        <mxCell id="HNpGyz6ydOrOyHHForkR-114" value="liste_inspection_laser" style="shape=table;startSize=30;container=1;collapsible=1;childLayout=tableLayout;fixedRows=1;rowLines=0;fontStyle=1;align=center;resizeLast=1;html=1;fillColor=#ffe6cc;strokeColor=#d79b00;" parent="1" vertex="1">
          <mxGeometry x="160" y="1080" width="210" height="120" as="geometry" />
        </mxCell>
        <mxCell id="HNpGyz6ydOrOyHHForkR-115" value="" style="shape=tableRow;horizontal=0;startSize=0;swimlaneHead=0;swimlaneBody=0;fillColor=none;collapsible=0;dropTarget=0;points=[[0,0.5],[1,0.5]];portConstraint=eastwest;top=0;left=0;right=0;bottom=1;" parent="HNpGyz6ydOrOyHHForkR-114" vertex="1">
          <mxGeometry y="30" width="210" height="30" as="geometry" />
        </mxCell>
        <mxCell id="HNpGyz6ydOrOyHHForkR-116" value="PK" style="shape=partialRectangle;connectable=0;fillColor=none;top=0;left=0;bottom=0;right=0;fontStyle=1;overflow=hidden;whiteSpace=wrap;html=1;" parent="HNpGyz6ydOrOyHHForkR-115" vertex="1">
          <mxGeometry width="30" height="30" as="geometry">
            <mxRectangle width="30" height="30" as="alternateBounds" />
          </mxGeometry>
        </mxCell>
        <mxCell id="HNpGyz6ydOrOyHHForkR-117" value="id&lt;span style=&quot;white-space: pre;&quot;&gt;&#x9;&lt;span style=&quot;white-space: pre;&quot;&gt;&#x9;&lt;/span&gt;&lt;span style=&quot;white-space: pre;&quot;&gt;&#x9;&lt;/span&gt;S&lt;/span&gt;ERIAL&lt;span style=&quot;white-space: pre;&quot;&gt;&#x9;&lt;/span&gt;&lt;span style=&quot;white-space: pre;&quot;&gt;&#x9;&lt;/span&gt;" style="shape=partialRectangle;connectable=0;fillColor=none;top=0;left=0;bottom=0;right=0;align=left;spacingLeft=6;fontStyle=5;overflow=hidden;whiteSpace=wrap;html=1;" parent="HNpGyz6ydOrOyHHForkR-115" vertex="1">
          <mxGeometry x="30" width="180" height="30" as="geometry">
            <mxRectangle width="180" height="30" as="alternateBounds" />
          </mxGeometry>
        </mxCell>
        <mxCell id="HNpGyz6ydOrOyHHForkR-118" value="" style="shape=tableRow;horizontal=0;startSize=0;swimlaneHead=0;swimlaneBody=0;fillColor=none;collapsible=0;dropTarget=0;points=[[0,0.5],[1,0.5]];portConstraint=eastwest;top=0;left=0;right=0;bottom=0;" parent="HNpGyz6ydOrOyHHForkR-114" vertex="1">
          <mxGeometry y="60" width="210" height="30" as="geometry" />
        </mxCell>
        <mxCell id="HNpGyz6ydOrOyHHForkR-119" value="FK" style="shape=partialRectangle;connectable=0;fillColor=none;top=0;left=0;bottom=0;right=0;editable=1;overflow=hidden;whiteSpace=wrap;html=1;" parent="HNpGyz6ydOrOyHHForkR-118" vertex="1">
          <mxGeometry width="30" height="30" as="geometry">
            <mxRectangle width="30" height="30" as="alternateBounds" />
          </mxGeometry>
        </mxCell>
        <mxCell id="HNpGyz6ydOrOyHHForkR-120" value="inspection_id" style="shape=partialRectangle;connectable=0;fillColor=none;top=0;left=0;bottom=0;right=0;align=left;spacingLeft=6;overflow=hidden;whiteSpace=wrap;html=1;" parent="HNpGyz6ydOrOyHHForkR-118" vertex="1">
          <mxGeometry x="30" width="180" height="30" as="geometry">
            <mxRectangle width="180" height="30" as="alternateBounds" />
          </mxGeometry>
        </mxCell>
        <mxCell id="HNpGyz6ydOrOyHHForkR-121" value="" style="shape=tableRow;horizontal=0;startSize=0;swimlaneHead=0;swimlaneBody=0;fillColor=none;collapsible=0;dropTarget=0;points=[[0,0.5],[1,0.5]];portConstraint=eastwest;top=0;left=0;right=0;bottom=0;" parent="HNpGyz6ydOrOyHHForkR-114" vertex="1">
          <mxGeometry y="90" width="210" height="30" as="geometry" />
        </mxCell>
        <mxCell id="HNpGyz6ydOrOyHHForkR-122" value="FK" style="shape=partialRectangle;connectable=0;fillColor=none;top=0;left=0;bottom=0;right=0;editable=1;overflow=hidden;whiteSpace=wrap;html=1;" parent="HNpGyz6ydOrOyHHForkR-121" vertex="1">
          <mxGeometry width="30" height="30" as="geometry">
            <mxRectangle width="30" height="30" as="alternateBounds" />
          </mxGeometry>
        </mxCell>
        <mxCell id="HNpGyz6ydOrOyHHForkR-123" value="inspection_laser_id" style="shape=partialRectangle;connectable=0;fillColor=none;top=0;left=0;bottom=0;right=0;align=left;spacingLeft=6;overflow=hidden;whiteSpace=wrap;html=1;" parent="HNpGyz6ydOrOyHHForkR-121" vertex="1">
          <mxGeometry x="30" width="180" height="30" as="geometry">
            <mxRectangle width="180" height="30" as="alternateBounds" />
          </mxGeometry>
        </mxCell>
        <mxCell id="HNpGyz6ydOrOyHHForkR-127" value="" style="endArrow=classic;html=1;rounded=0;entryX=1;entryY=0.5;entryDx=0;entryDy=0;exitX=0;exitY=0.5;exitDx=0;exitDy=0;edgeStyle=orthogonalEdgeStyle;" parent="1" source="HNpGyz6ydOrOyHHForkR-118" target="HNpGyz6ydOrOyHHForkR-130" edge="1">
          <mxGeometry width="50" height="50" relative="1" as="geometry">
            <mxPoint x="39" y="1015" as="sourcePoint" />
            <mxPoint x="82.5" y="792.5" as="targetPoint" />
            <Array as="points">
              <mxPoint x="150" y="1155" />
              <mxPoint x="150" y="885" />
            </Array>
          </mxGeometry>
        </mxCell>
        <mxCell id="HNpGyz6ydOrOyHHForkR-128" value="" style="endArrow=classic;html=1;rounded=0;exitX=0;exitY=0.5;exitDx=0;exitDy=0;entryX=-0.005;entryY=0.71;entryDx=0;entryDy=0;entryPerimeter=0;" parent="1" source="HNpGyz6ydOrOyHHForkR-121" target="Cfk49-MD2ZqIIwPq4QvF-89" edge="1">
          <mxGeometry width="50" height="50" relative="1" as="geometry">
            <mxPoint x="130" y="1220" as="sourcePoint" />
            <mxPoint x="53" y="858" as="targetPoint" />
            <Array as="points">
              <mxPoint x="40" y="1290" />
            </Array>
          </mxGeometry>
        </mxCell>
        <mxCell id="HNpGyz6ydOrOyHHForkR-129" value="Inspection" style="shape=table;startSize=30;container=1;collapsible=1;childLayout=tableLayout;fixedRows=1;rowLines=0;fontStyle=1;align=center;resizeLast=1;html=1;fillColor=#f8cecc;strokeColor=#b85450;" parent="1" vertex="1">
          <mxGeometry x="-260" y="840" width="350" height="180" as="geometry">
            <mxRectangle x="-260" y="840" width="100" height="30" as="alternateBounds" />
          </mxGeometry>
        </mxCell>
        <mxCell id="HNpGyz6ydOrOyHHForkR-130" value="" style="shape=tableRow;horizontal=0;startSize=0;swimlaneHead=0;swimlaneBody=0;fillColor=none;collapsible=0;dropTarget=0;points=[[0,0.5],[1,0.5]];portConstraint=eastwest;top=0;left=0;right=0;bottom=1;" parent="HNpGyz6ydOrOyHHForkR-129" vertex="1">
          <mxGeometry y="30" width="350" height="30" as="geometry" />
        </mxCell>
        <mxCell id="HNpGyz6ydOrOyHHForkR-131" value="PK" style="shape=partialRectangle;connectable=0;fillColor=none;top=0;left=0;bottom=0;right=0;fontStyle=1;overflow=hidden;whiteSpace=wrap;html=1;" parent="HNpGyz6ydOrOyHHForkR-130" vertex="1">
          <mxGeometry width="50" height="30" as="geometry">
            <mxRectangle width="50" height="30" as="alternateBounds" />
          </mxGeometry>
        </mxCell>
        <mxCell id="HNpGyz6ydOrOyHHForkR-132" value="id&lt;span style=&quot;white-space: pre;&quot;&gt;&#x9;&lt;/span&gt;&lt;span style=&quot;white-space: pre;&quot;&gt;&#x9;&lt;/span&gt;&lt;span style=&quot;white-space: pre;&quot;&gt;&#x9;&lt;/span&gt;&lt;span style=&quot;white-space: pre;&quot;&gt;&#x9;&lt;/span&gt;SERIAL" style="shape=partialRectangle;connectable=0;fillColor=none;top=0;left=0;bottom=0;right=0;align=left;spacingLeft=6;fontStyle=5;overflow=hidden;whiteSpace=wrap;html=1;" parent="HNpGyz6ydOrOyHHForkR-130" vertex="1">
          <mxGeometry x="50" width="300" height="30" as="geometry">
            <mxRectangle width="300" height="30" as="alternateBounds" />
          </mxGeometry>
        </mxCell>
        <mxCell id="HNpGyz6ydOrOyHHForkR-133" value="" style="shape=tableRow;horizontal=0;startSize=0;swimlaneHead=0;swimlaneBody=0;fillColor=none;collapsible=0;dropTarget=0;points=[[0,0.5],[1,0.5]];portConstraint=eastwest;top=0;left=0;right=0;bottom=0;" parent="HNpGyz6ydOrOyHHForkR-129" vertex="1">
          <mxGeometry y="60" width="350" height="30" as="geometry" />
        </mxCell>
        <mxCell id="HNpGyz6ydOrOyHHForkR-134" value="NN" style="shape=partialRectangle;connectable=0;fillColor=none;top=0;left=0;bottom=0;right=0;editable=1;overflow=hidden;whiteSpace=wrap;html=1;" parent="HNpGyz6ydOrOyHHForkR-133" vertex="1">
          <mxGeometry width="50" height="30" as="geometry">
            <mxRectangle width="50" height="30" as="alternateBounds" />
          </mxGeometry>
        </mxCell>
        <mxCell id="HNpGyz6ydOrOyHHForkR-135" value="date_debut &lt;span style=&quot;white-space: pre;&quot;&gt;&#x9;&lt;/span&gt;&lt;span style=&quot;white-space: pre;&quot;&gt;&#x9;&lt;/span&gt;&lt;span style=&quot;white-space: pre;&quot;&gt;&#x9;&lt;/span&gt;&lt;span style=&quot;white-space: pre;&quot;&gt;&#x9;&lt;/span&gt;&lt;span style=&quot;white-space: pre;&quot;&gt;&#x9;&lt;/span&gt;&lt;span style=&quot;white-space: pre;&quot;&gt;&#x9;&lt;/span&gt;timestamp&amp;nbsp;" style="shape=partialRectangle;connectable=0;fillColor=none;top=0;left=0;bottom=0;right=0;align=left;spacingLeft=6;overflow=hidden;whiteSpace=wrap;html=1;" parent="HNpGyz6ydOrOyHHForkR-133" vertex="1">
          <mxGeometry x="50" width="300" height="30" as="geometry">
            <mxRectangle width="300" height="30" as="alternateBounds" />
          </mxGeometry>
        </mxCell>
        <mxCell id="HNpGyz6ydOrOyHHForkR-136" value="" style="shape=tableRow;horizontal=0;startSize=0;swimlaneHead=0;swimlaneBody=0;fillColor=none;collapsible=0;dropTarget=0;points=[[0,0.5],[1,0.5]];portConstraint=eastwest;top=0;left=0;right=0;bottom=0;" parent="HNpGyz6ydOrOyHHForkR-129" vertex="1">
          <mxGeometry y="90" width="350" height="30" as="geometry" />
        </mxCell>
        <mxCell id="HNpGyz6ydOrOyHHForkR-137" value="NN" style="shape=partialRectangle;connectable=0;fillColor=none;top=0;left=0;bottom=0;right=0;editable=1;overflow=hidden;whiteSpace=wrap;html=1;" parent="HNpGyz6ydOrOyHHForkR-136" vertex="1">
          <mxGeometry width="50" height="30" as="geometry">
            <mxRectangle width="50" height="30" as="alternateBounds" />
          </mxGeometry>
        </mxCell>
        <mxCell id="HNpGyz6ydOrOyHHForkR-138" value="date_fin &lt;span style=&quot;white-space: pre;&quot;&gt;&#x9;&lt;/span&gt;&lt;span style=&quot;white-space: pre;&quot;&gt;&#x9;&lt;/span&gt;&lt;span style=&quot;white-space: pre;&quot;&gt;&#x9;&lt;/span&gt;&lt;span style=&quot;white-space: pre;&quot;&gt;&#x9;&lt;/span&gt;&lt;span style=&quot;white-space: pre;&quot;&gt;&#x9;&lt;/span&gt;&lt;span style=&quot;white-space: pre;&quot;&gt;&#x9;&lt;/span&gt;&lt;span style=&quot;white-space: pre;&quot;&gt;&#x9;&lt;/span&gt;timestamp&amp;nbsp;" style="shape=partialRectangle;connectable=0;fillColor=none;top=0;left=0;bottom=0;right=0;align=left;spacingLeft=6;overflow=hidden;whiteSpace=wrap;html=1;" parent="HNpGyz6ydOrOyHHForkR-136" vertex="1">
          <mxGeometry x="50" width="300" height="30" as="geometry">
            <mxRectangle width="300" height="30" as="alternateBounds" />
          </mxGeometry>
        </mxCell>
        <mxCell id="HNpGyz6ydOrOyHHForkR-139" value="" style="shape=tableRow;horizontal=0;startSize=0;swimlaneHead=0;swimlaneBody=0;fillColor=none;collapsible=0;dropTarget=0;points=[[0,0.5],[1,0.5]];portConstraint=eastwest;top=0;left=0;right=0;bottom=0;" parent="HNpGyz6ydOrOyHHForkR-129" vertex="1">
          <mxGeometry y="120" width="350" height="30" as="geometry" />
        </mxCell>
        <mxCell id="HNpGyz6ydOrOyHHForkR-140" value="NN" style="shape=partialRectangle;connectable=0;fillColor=none;top=0;left=0;bottom=0;right=0;editable=1;overflow=hidden;whiteSpace=wrap;html=1;" parent="HNpGyz6ydOrOyHHForkR-139" vertex="1">
          <mxGeometry width="50" height="30" as="geometry">
            <mxRectangle width="50" height="30" as="alternateBounds" />
          </mxGeometry>
        </mxCell>
        <mxCell id="HNpGyz6ydOrOyHHForkR-141" value="chemin_fichier_donnees &lt;span style=&quot;white-space: pre;&quot;&gt;&#x9;&lt;/span&gt;&lt;span style=&quot;white-space: pre;&quot;&gt;&#x9;&lt;/span&gt;VARCHAR(512)&amp;nbsp;" style="shape=partialRectangle;connectable=0;fillColor=none;top=0;left=0;bottom=0;right=0;align=left;spacingLeft=6;overflow=hidden;whiteSpace=wrap;html=1;" parent="HNpGyz6ydOrOyHHForkR-139" vertex="1">
          <mxGeometry x="50" width="300" height="30" as="geometry">
            <mxRectangle width="300" height="30" as="alternateBounds" />
          </mxGeometry>
        </mxCell>
        <mxCell id="HNpGyz6ydOrOyHHForkR-142" value="" style="shape=tableRow;horizontal=0;startSize=0;swimlaneHead=0;swimlaneBody=0;fillColor=none;collapsible=0;dropTarget=0;points=[[0,0.5],[1,0.5]];portConstraint=eastwest;top=0;left=0;right=0;bottom=0;" parent="HNpGyz6ydOrOyHHForkR-129" vertex="1">
          <mxGeometry y="150" width="350" height="30" as="geometry" />
        </mxCell>
        <mxCell id="HNpGyz6ydOrOyHHForkR-143" value="NN" style="shape=partialRectangle;connectable=0;fillColor=none;top=0;left=0;bottom=0;right=0;editable=1;overflow=hidden;whiteSpace=wrap;html=1;" parent="HNpGyz6ydOrOyHHForkR-142" vertex="1">
          <mxGeometry width="50" height="30" as="geometry">
            <mxRectangle width="50" height="30" as="alternateBounds" />
          </mxGeometry>
        </mxCell>
        <mxCell id="HNpGyz6ydOrOyHHForkR-144" value="nom_fichier_donnees &lt;span style=&quot;white-space: pre;&quot;&gt;&#x9;&lt;/span&gt;&lt;span style=&quot;white-space: pre;&quot;&gt;&#x9;&lt;/span&gt;&lt;span style=&quot;white-space: pre;&quot;&gt;&#x9;&lt;/span&gt;CHAR(18)" style="shape=partialRectangle;connectable=0;fillColor=none;top=0;left=0;bottom=0;right=0;align=left;spacingLeft=6;overflow=hidden;whiteSpace=wrap;html=1;" parent="HNpGyz6ydOrOyHHForkR-142" vertex="1">
          <mxGeometry x="50" width="300" height="30" as="geometry">
            <mxRectangle width="300" height="30" as="alternateBounds" />
          </mxGeometry>
        </mxCell>
        <mxCell id="HNpGyz6ydOrOyHHForkR-161" value="Poste" style="shape=table;startSize=30;container=1;collapsible=1;childLayout=tableLayout;fixedRows=1;rowLines=0;fontStyle=1;align=center;resizeLast=1;fillColor=#e1d5e7;strokeColor=#9673a6;" parent="1" vertex="1">
          <mxGeometry x="1120" y="1175" width="230" height="120" as="geometry">
            <mxRectangle x="1120" y="1175" width="70" height="30" as="alternateBounds" />
          </mxGeometry>
        </mxCell>
        <mxCell id="HNpGyz6ydOrOyHHForkR-162" value="" style="shape=partialRectangle;collapsible=0;dropTarget=0;pointerEvents=0;fillColor=none;points=[[0,0.5],[1,0.5]];portConstraint=eastwest;top=0;left=0;right=0;bottom=1;" parent="HNpGyz6ydOrOyHHForkR-161" vertex="1">
          <mxGeometry y="30" width="230" height="60" as="geometry" />
        </mxCell>
        <mxCell id="HNpGyz6ydOrOyHHForkR-163" value="PK" style="shape=partialRectangle;overflow=hidden;connectable=0;fillColor=none;top=0;left=0;bottom=0;right=0;fontStyle=1;" parent="HNpGyz6ydOrOyHHForkR-162" vertex="1">
          <mxGeometry width="30" height="60" as="geometry">
            <mxRectangle width="30" height="60" as="alternateBounds" />
          </mxGeometry>
        </mxCell>
        <mxCell id="HNpGyz6ydOrOyHHForkR-164" value="poste_id" style="shape=partialRectangle;overflow=hidden;connectable=0;fillColor=none;top=0;left=0;bottom=0;right=0;align=left;spacingLeft=6;fontStyle=5;" parent="HNpGyz6ydOrOyHHForkR-162" vertex="1">
          <mxGeometry x="30" width="200" height="60" as="geometry">
            <mxRectangle width="200" height="60" as="alternateBounds" />
          </mxGeometry>
        </mxCell>
        <mxCell id="HNpGyz6ydOrOyHHForkR-165" value="" style="shape=partialRectangle;collapsible=0;dropTarget=0;pointerEvents=0;fillColor=none;points=[[0,0.5],[1,0.5]];portConstraint=eastwest;top=0;left=0;right=0;bottom=0;" parent="HNpGyz6ydOrOyHHForkR-161" vertex="1">
          <mxGeometry y="90" width="230" height="30" as="geometry" />
        </mxCell>
        <mxCell id="HNpGyz6ydOrOyHHForkR-166" value="" style="shape=partialRectangle;overflow=hidden;connectable=0;fillColor=none;top=0;left=0;bottom=0;right=0;" parent="HNpGyz6ydOrOyHHForkR-165" vertex="1">
          <mxGeometry width="30" height="30" as="geometry">
            <mxRectangle width="30" height="30" as="alternateBounds" />
          </mxGeometry>
        </mxCell>
        <mxCell id="HNpGyz6ydOrOyHHForkR-167" value="poste_nom              VARCHAR(64)" style="shape=partialRectangle;overflow=hidden;connectable=0;fillColor=none;top=0;left=0;bottom=0;right=0;align=left;spacingLeft=6;" parent="HNpGyz6ydOrOyHHForkR-165" vertex="1">
          <mxGeometry x="30" width="200" height="30" as="geometry">
            <mxRectangle width="200" height="30" as="alternateBounds" />
          </mxGeometry>
        </mxCell>
      </root>
    </mxGraphModel>
  </diagram>
</mxfile>
